<svg baseProfile="full" height="420" version="1.1" width="900" xmlns="http://www.w3.org/2000/svg" xmlns:ev="http://www.w3.org/2001/xml-events" xmlns:xlink="http://www.w3.org/1999/xlink"><defs /><text fill="black" font-size="14px" text-anchor="end" x="190" y="123">a-linsi.fa</text><line stroke="black" stroke-width="2" x1="200" x2="800.0" y1="118" y2="118" /><line stroke="rgb(21,164,164)" stroke-width="1.5" x1="222.22222222222223" x2="222.22222222222223" y1="118" y2="108" /><text fill="rgb(21,164,164)" font-size="8px" text-anchor="middle" x="222.22222222222223" y="95">7</text><text fill="rgb(21,164,164)" font-size="12px" font-weight="bold" text-anchor="middle" x="222.22222222222223" y="103">H</text><line stroke="rgb(21,164,164)" stroke-width="1.5" x1="241.26984126984127" x2="241.26984126984127" y1="118" y2="83" /><text fill="rgb(21,164,164)" font-size="8px" text-anchor="middle" x="241.26984126984127" y="70">13</text><text fill="rgb(21,164,164)" font-size="12px" font-weight="bold" text-anchor="middle" x="241.26984126984127" y="78">H</text><line stroke="rgb(230,130,0)" stroke-width="1.5" x1="247.61904761904762" x2="247.61904761904762" y1="118" y2="108" /><text fill="rgb(230,130,0)" font-size="8px" text-anchor="middle" x="247.61904761904762" y="95">15</text><text fill="rgb(230,130,0)" font-size="12px" font-weight="bold" text-anchor="middle" x="247.61904761904762" y="103">G</text><line stroke="rgb(100,150,255)" stroke-width="1.5" x1="257.1428571428571" x2="257.1428571428571" y1="118" y2="58" /><text fill="rgb(100,150,255)" font-size="8px" text-anchor="middle" x="257.1428571428571" y="45">18</text><text fill="rgb(100,150,255)" font-size="12px" font-weight="bold" text-anchor="middle" x="257.1428571428571" y="53">F</text><line stroke="rgb(21,164,164)" stroke-width="1.5" x1="269.8412698412698" x2="269.8412698412698" y1="118" y2="83" /><text fill="rgb(21,164,164)" font-size="8px" text-anchor="middle" x="269.8412698412698" y="70">22</text><text fill="rgb(21,164,164)" font-size="12px" font-weight="bold" text-anchor="middle" x="269.8412698412698" y="78">H</text><line stroke="rgb(230,10,10)" stroke-width="1.5" x1="273.015873015873" x2="273.015873015873" y1="118" y2="108" /><text fill="rgb(230,10,10)" font-size="8px" text-anchor="middle" x="273.015873015873" y="95">23</text><text fill="rgb(230,10,10)" font-size="12px" font-weight="bold" text-anchor="middle" x="273.015873015873" y="103">R</text><line stroke="rgb(204,0,204)" stroke-width="1.5" x1="295.23809523809524" x2="295.23809523809524" y1="118" y2="83" /><text fill="rgb(204,0,204)" font-size="8px" text-anchor="middle" x="295.23809523809524" y="70">30</text><text fill="rgb(204,0,204)" font-size="12px" font-weight="bold" text-anchor="middle" x="295.23809523809524" y="78">E</text><line stroke="rgb(100,150,255)" stroke-width="1.5" x1="349.20634920634916" x2="349.20634920634916" y1="118" y2="108" /><text fill="rgb(100,150,255)" font-size="8px" text-anchor="middle" x="349.20634920634916" y="95">47</text><text fill="rgb(100,150,255)" font-size="12px" font-weight="bold" text-anchor="middle" x="349.20634920634916" y="103">W</text><line stroke="rgb(230,130,0)" stroke-width="1.5" x1="422.2222222222222" x2="422.2222222222222" y1="118" y2="108" /><text fill="rgb(230,130,0)" font-size="8px" text-anchor="middle" x="422.2222222222222" y="95">70</text><text fill="rgb(230,130,0)" font-size="12px" font-weight="bold" text-anchor="middle" x="422.2222222222222" y="103">G</text><line stroke="rgb(230,130,0)" stroke-width="1.5" x1="441.26984126984127" x2="441.26984126984127" y1="118" y2="83" /><text fill="rgb(230,130,0)" font-size="8px" text-anchor="middle" x="441.26984126984127" y="70">76</text><text fill="rgb(230,130,0)" font-size="12px" font-weight="bold" text-anchor="middle" x="441.26984126984127" y="78">G</text><line stroke="rgb(230,130,0)" stroke-width="1.5" x1="457.1428571428571" x2="457.1428571428571" y1="118" y2="108" /><text fill="rgb(230,130,0)" font-size="8px" text-anchor="middle" x="457.1428571428571" y="95">81</text><text fill="rgb(230,130,0)" font-size="12px" font-weight="bold" text-anchor="middle" x="457.1428571428571" y="103">G</text><line stroke="rgb(230,10,10)" stroke-width="1.5" x1="507.9365079365079" x2="507.9365079365079" y1="118" y2="108" /><text fill="rgb(230,10,10)" font-size="8px" text-anchor="middle" x="507.9365079365079" y="95">97</text><text fill="rgb(230,10,10)" font-size="12px" font-weight="bold" text-anchor="middle" x="507.9365079365079" y="103">R</text><line stroke="rgb(204,0,204)" stroke-width="1.5" x1="666.6666666666666" x2="666.6666666666666" y1="118" y2="108" /><text fill="rgb(204,0,204)" font-size="8px" text-anchor="middle" x="666.6666666666666" y="95">147</text><text fill="rgb(204,0,204)" font-size="12px" font-weight="bold" text-anchor="middle" x="666.6666666666666" y="103">E</text><line stroke="rgb(21,164,164)" stroke-width="1.5" x1="676.1904761904761" x2="676.1904761904761" y1="118" y2="83" /><text fill="rgb(21,164,164)" font-size="8px" text-anchor="middle" x="676.1904761904761" y="70">150</text><text fill="rgb(21,164,164)" font-size="12px" font-weight="bold" text-anchor="middle" x="676.1904761904761" y="78">H</text><line stroke="rgb(21,164,164)" stroke-width="1.5" x1="688.8888888888889" x2="688.8888888888889" y1="118" y2="58" /><text fill="rgb(21,164,164)" font-size="8px" text-anchor="middle" x="688.8888888888889" y="45">154</text><text fill="rgb(21,164,164)" font-size="12px" font-weight="bold" text-anchor="middle" x="688.8888888888889" y="53">H</text><line stroke="rgb(230,130,0)" stroke-width="1.5" x1="704.7619047619048" x2="704.7619047619048" y1="118" y2="108" /><text fill="rgb(230,130,0)" font-size="8px" text-anchor="middle" x="704.7619047619048" y="95">159</text><text fill="rgb(230,130,0)" font-size="12px" font-weight="bold" text-anchor="middle" x="704.7619047619048" y="103">G</text><line stroke="rgb(204,0,204)" stroke-width="1.5" x1="739.6825396825396" x2="739.6825396825396" y1="118" y2="108" /><text fill="rgb(204,0,204)" font-size="8px" text-anchor="middle" x="739.6825396825396" y="95">170</text><text fill="rgb(204,0,204)" font-size="12px" font-weight="bold" text-anchor="middle" x="739.6825396825396" y="103">D</text><line stroke="rgb(100,150,255)" stroke-width="1.5" x1="742.8571428571428" x2="742.8571428571428" y1="118" y2="83" /><text fill="rgb(100,150,255)" font-size="8px" text-anchor="middle" x="742.8571428571428" y="70">171</text><text fill="rgb(100,150,255)" font-size="12px" font-weight="bold" text-anchor="middle" x="742.8571428571428" y="78">V</text><line stroke="rgb(100,150,255)" stroke-width="1.5" x1="749.2063492063492" x2="749.2063492063492" y1="118" y2="58" /><text fill="rgb(100,150,255)" font-size="8px" text-anchor="middle" x="749.2063492063492" y="45">173</text><text fill="rgb(100,150,255)" font-size="12px" font-weight="bold" text-anchor="middle" x="749.2063492063492" y="53">F</text><line stroke="rgb(21,164,164)" stroke-width="1.5" x1="761.9047619047619" x2="761.9047619047619" y1="118" y2="33" /><text fill="rgb(21,164,164)" font-size="8px" text-anchor="middle" x="761.9047619047619" y="20">177</text><text fill="rgb(21,164,164)" font-size="12px" font-weight="bold" text-anchor="middle" x="761.9047619047619" y="28">H</text><path d="M 201.6,127.5 L 202.6,129.3 L 203.6,130.7 L 204.7,131.4 L 205.7,131.4 L 206.7,130.5 L 207.7,129.0 L 208.8,127.2 L 209.8,125.5 L 210.8,124.1 L 211.8,123.5 L 212.9,123.7 L 213.9,124.7 L 214.9,126.3 L 215.9,128.1 L 216.9,129.8 L 218.0,131.0 L 219.0,131.5 L 220.0,131.2 L 221.0,130.1 L 222.1,128.4 L 223.1,126.6 L 224.1,125.0 L 225.1,123.9 L 226.2,123.5 L 227.2,124.0 L 228.2,125.2 L 229.2,126.9 L 230.3,128.7 L 231.3,130.3 L 232.3,131.3 L 233.3,131.5 L 233.3,134.5 L 232.3,134.3 L 231.3,133.3 L 230.3,131.7 L 229.2,129.9 L 228.2,128.2 L 227.2,127.0 L 226.2,126.5 L 225.1,126.9 L 224.1,128.0 L 223.1,129.6 L 222.1,131.4 L 221.0,133.1 L 220.0,134.2 L 219.0,134.5 L 218.0,134.0 L 216.9,132.8 L 215.9,131.1 L 214.9,129.3 L 213.9,127.7 L 212.9,126.7 L 211.8,126.5 L 210.8,127.1 L 209.8,128.5 L 208.8,130.2 L 207.7,132.0 L 206.7,133.5 L 205.7,134.4 L 204.7,134.4 L 203.6,133.7 L 202.6,132.3 L 201.6,130.5 Z" fill="rgb(230,90,90)" stroke="rgb(180,60,60)" stroke-width="0.5" /><line stroke="rgb(180,180,180)" stroke-width="1.5" x1="233.33333333333331" x2="255.55555555555554" y1="129.0" y2="129.0" /><path d="M 255.6,127.5 L 256.6,129.2 L 257.6,130.6 L 258.6,131.4 L 259.6,131.4 L 260.6,130.6 L 261.6,129.2 L 262.6,127.5 L 263.6,125.7 L 264.6,124.3 L 265.6,123.6 L 266.6,123.6 L 267.6,124.4 L 268.6,125.8 L 269.6,127.6 L 270.6,129.3 L 271.6,130.7 L 272.6,131.4 L 273.6,131.4 L 274.6,130.6 L 275.6,129.2 L 276.6,127.4 L 277.6,125.7 L 278.6,124.3 L 279.6,123.6 L 280.6,123.6 L 281.6,124.4 L 282.6,125.9 L 283.6,127.6 L 284.6,129.4 L 285.6,130.7 L 286.6,131.4 L 287.6,131.4 L 288.6,130.5 L 289.6,129.1 L 290.6,127.3 L 291.6,125.6 L 292.6,124.3 L 293.7,123.6 L 294.7,123.6 L 295.7,124.5 L 296.7,125.9 L 297.7,127.7 L 298.7,129.4 L 299.7,130.7 L 300.7,131.4 L 301.7,131.3 L 302.7,130.5 L 303.7,129.0 L 304.7,127.3 L 305.7,125.6 L 306.7,124.2 L 307.7,123.6 L 308.7,123.7 L 309.7,124.5 L 310.7,126.0 L 311.7,127.8 L 312.7,129.5 L 312.7,132.5 L 311.7,130.8 L 310.7,129.0 L 309.7,127.5 L 308.7,126.7 L 307.7,126.6 L 306.7,127.2 L 305.7,128.6 L 304.7,130.3 L 303.7,132.0 L 302.7,133.5 L 301.7,134.3 L 300.7,134.4 L 299.7,133.7 L 298.7,132.4 L 297.7,130.7 L 296.7,128.9 L 295.7,127.5 L 294.7,126.6 L 293.7,126.6 L 292.6,127.3 L 291.6,128.6 L 290.6,130.3 L 289.6,132.1 L 288.6,133.5 L 287.6,134.4 L 286.6,134.4 L 285.6,133.7 L 284.6,132.4 L 283.6,130.6 L 282.6,128.9 L 281.6,127.4 L 280.6,126.6 L 279.6,126.6 L 278.6,127.3 L 277.6,128.7 L 276.6,130.4 L 275.6,132.2 L 274.6,133.6 L 273.6,134.4 L 272.6,134.4 L 271.6,133.7 L 270.6,132.3 L 269.6,130.6 L 268.6,128.8 L 267.6,127.4 L 266.6,126.6 L 265.6,126.6 L 264.6,127.3 L 263.6,128.7 L 262.6,130.5 L 261.6,132.2 L 260.6,133.6 L 259.6,134.4 L 258.6,134.4 L 257.6,133.6 L 256.6,132.2 L 255.6,130.5 Z" fill="rgb(230,90,90)" stroke="rgb(180,60,60)" stroke-width="0.5" /><line stroke="rgb(180,180,180)" stroke-width="1.5" x1="312.6984126984127" x2="331.74603174603175" y1="129.0" y2="129.0" /><polygon fill="rgb(240,195,50)" points="331.74603174603175,126.0 333.8095238095238,126.0 333.8095238095238,123.0 334.92063492063494,129.0 333.8095238095238,135.0 333.8095238095238,132.0 331.74603174603175,132.0" stroke="rgb(190,150,30)" stroke-width="0.5" /><line stroke="rgb(180,180,180)" stroke-width="1.5" x1="334.92063492063494" x2="344.44444444444446" y1="129.0" y2="129.0" /><polygon fill="rgb(240,195,50)" points="344.44444444444446,126.0 346.5079365079365,126.0 346.5079365079365,123.0 347.6190476190476,129.0 346.5079365079365,135.0 346.5079365079365,132.0 344.44444444444446,132.0" stroke="rgb(190,150,30)" stroke-width="0.5" /><line stroke="rgb(180,180,180)" stroke-width="1.5" x1="347.6190476190476" x2="353.968253968254" y1="129.0" y2="129.0" /><path d="M 354.0,127.5 L 354.6,128.6 L 355.2,129.7 L 355.9,130.5 L 356.5,131.1 L 357.1,131.5 L 357.8,131.5 L 358.4,131.1 L 359.0,130.5 L 359.7,129.7 L 360.3,128.7 L 361.0,127.5 L 361.6,126.4 L 362.2,125.4 L 362.9,124.5 L 363.5,123.9 L 364.1,123.5 L 364.8,123.5 L 365.4,123.8 L 366.0,124.4 L 366.7,125.3 L 366.7,128.3 L 366.0,127.4 L 365.4,126.8 L 364.8,126.5 L 364.1,126.5 L 363.5,126.9 L 362.9,127.5 L 362.2,128.4 L 361.6,129.4 L 361.0,130.5 L 360.3,131.7 L 359.7,132.7 L 359.0,133.5 L 358.4,134.1 L 357.8,134.5 L 357.1,134.5 L 356.5,134.1 L 355.9,133.5 L 355.2,132.7 L 354.6,131.6 L 354.0,130.5 Z" fill="rgb(230,90,90)" stroke="rgb(180,60,60)" stroke-width="0.5" /><line stroke="rgb(180,180,180)" stroke-width="1.5" x1="366.66666666666663" x2="382.53968253968253" y1="129.0" y2="129.0" /><path d="M 382.5,127.5 L 383.0,128.3 L 383.5,129.2 L 384.0,129.9 L 384.4,130.5 L 384.9,131.0 L 385.4,131.3 L 385.9,131.5 L 386.3,131.5 L 386.8,131.3 L 387.3,130.9 L 387.8,130.3 L 388.3,129.7 L 388.7,128.9 L 389.2,128.1 L 389.7,127.2 L 390.2,126.4 L 390.6,125.6 L 391.1,124.9 L 391.6,124.3 L 392.1,123.9 L 392.1,126.9 L 391.6,127.3 L 391.1,127.9 L 390.6,128.6 L 390.2,129.4 L 389.7,130.2 L 389.2,131.1 L 388.7,131.9 L 388.3,132.7 L 387.8,133.3 L 387.3,133.9 L 386.8,134.3 L 386.3,134.5 L 385.9,134.5 L 385.4,134.3 L 384.9,134.0 L 384.4,133.5 L 384.0,132.9 L 383.5,132.2 L 383.0,131.3 L 382.5,130.5 Z" fill="rgb(230,90,90)" stroke="rgb(180,60,60)" stroke-width="0.5" /><polygon fill="rgb(240,195,50)" points="392.06349206349205,126.0 394.1269841269841,126.0 394.1269841269841,123.0 395.23809523809524,129.0 394.1269841269841,135.0 394.1269841269841,132.0 392.06349206349205,132.0" stroke="rgb(190,150,30)" stroke-width="0.5" /><path d="M 395.2,127.5 L 395.7,128.3 L 396.2,129.2 L 396.7,129.9 L 397.1,130.5 L 397.6,131.0 L 398.1,131.3 L 398.6,131.5 L 399.0,131.5 L 399.5,131.3 L 400.0,130.9 L 400.5,130.3 L 401.0,129.7 L 401.4,128.9 L 401.9,128.1 L 402.4,127.2 L 402.9,126.4 L 403.3,125.6 L 403.8,124.9 L 404.3,124.3 L 404.8,123.9 L 404.8,126.9 L 404.3,127.3 L 403.8,127.9 L 403.3,128.6 L 402.9,129.4 L 402.4,130.2 L 401.9,131.1 L 401.4,131.9 L 401.0,132.7 L 400.5,133.3 L 400.0,133.9 L 399.5,134.3 L 399.0,134.5 L 398.6,134.5 L 398.1,134.3 L 397.6,134.0 L 397.1,133.5 L 396.7,132.9 L 396.2,132.2 L 395.7,131.3 L 395.2,130.5 Z" fill="rgb(230,90,90)" stroke="rgb(180,60,60)" stroke-width="0.5" /><line stroke="rgb(180,180,180)" stroke-width="1.5" x1="404.76190476190476" x2="426.984126984127" y1="129.0" y2="129.0" /><polygon fill="rgb(240,195,50)" points="426.984126984127,126.0 429.04761904761904,126.0 429.04761904761904,123.0 430.1587301587301,129.0 429.04761904761904,135.0 429.04761904761904,132.0 426.984126984127,132.0" stroke="rgb(190,150,30)" stroke-width="0.5" /><line stroke="rgb(180,180,180)" stroke-width="1.5" x1="430.1587301587301" x2="442.85714285714283" y1="129.0" y2="129.0" /><polygon fill="rgb(240,195,50)" points="442.85714285714283,126.0 446.98412698412693,126.0 446.98412698412693,123.0 449.20634920634916,129.0 446.98412698412693,135.0 446.98412698412693,132.0 442.85714285714283,132.0" stroke="rgb(190,150,30)" stroke-width="0.5" /><line stroke="rgb(180,180,180)" stroke-width="1.5" x1="449.20634920634916" x2="503.17460317460313" y1="129.0" y2="129.0" /><polygon fill="rgb(240,195,50)" points="503.17460317460313,126.0 505.2380952380952,126.0 505.2380952380952,123.0 506.3492063492063,129.0 505.2380952380952,135.0 505.2380952380952,132.0 503.17460317460313,132.0" stroke="rgb(190,150,30)" stroke-width="0.5" /><line stroke="rgb(180,180,180)" stroke-width="1.5" x1="506.3492063492063" x2="547.6190476190476" y1="129.0" y2="129.0" /><path d="M 547.6,127.5 L 548.6,129.3 L 549.7,130.7 L 550.7,131.4 L 551.7,131.4 L 552.7,130.5 L 553.7,129.1 L 554.7,127.3 L 555.7,125.6 L 556.8,124.2 L 557.8,123.5 L 558.8,123.7 L 559.8,124.6 L 560.8,126.1 L 561.8,127.9 L 562.9,129.6 L 563.9,130.9 L 564.9,131.5 L 565.9,131.3 L 566.9,130.3 L 567.9,128.7 L 569.0,126.9 L 570.0,125.2 L 571.0,124.0 L 572.0,123.5 L 573.0,123.8 L 573.0,126.8 L 572.0,126.5 L 571.0,127.0 L 570.0,128.2 L 569.0,129.9 L 567.9,131.7 L 566.9,133.3 L 565.9,134.3 L 564.9,134.5 L 563.9,133.9 L 562.9,132.6 L 561.8,130.9 L 560.8,129.1 L 559.8,127.6 L 558.8,126.7 L 557.8,126.5 L 556.8,127.2 L 555.7,128.6 L 554.7,130.3 L 553.7,132.1 L 552.7,133.5 L 551.7,134.4 L 550.7,134.4 L 549.7,133.7 L 548.6,132.3 L 547.6,130.5 Z" fill="rgb(230,90,90)" stroke="rgb(180,60,60)" stroke-width="0.5" /><line stroke="rgb(180,180,180)" stroke-width="1.5" x1="573.015873015873" x2="588.8888888888889" y1="129.0" y2="129.0" /><path d="M 588.9,127.5 L 589.5,128.6 L 590.2,129.7 L 590.8,130.5 L 591.4,131.1 L 592.1,131.5 L 592.7,131.5 L 593.3,131.1 L 594.0,130.5 L 594.6,129.7 L 595.2,128.7 L 595.9,127.5 L 596.5,126.4 L 597.1,125.4 L 597.8,124.5 L 598.4,123.9 L 599.0,123.5 L 599.7,123.5 L 600.3,123.8 L 601.0,124.4 L 601.6,125.3 L 601.6,128.3 L 601.0,127.4 L 600.3,126.8 L 599.7,126.5 L 599.0,126.5 L 598.4,126.9 L 597.8,127.5 L 597.1,128.4 L 596.5,129.4 L 595.9,130.5 L 595.2,131.7 L 594.6,132.7 L 594.0,133.5 L 593.3,134.1 L 592.7,134.5 L 592.1,134.5 L 591.4,134.1 L 590.8,133.5 L 590.2,132.7 L 589.5,131.6 L 588.9,130.5 Z" fill="rgb(230,90,90)" stroke="rgb(180,60,60)" stroke-width="0.5" /><line stroke="rgb(180,180,180)" stroke-width="1.5" x1="601.5873015873016" x2="617.4603174603174" y1="129.0" y2="129.0" /><polygon fill="rgb(240,195,50)" points="617.4603174603174,126.0 619.5238095238095,126.0 619.5238095238095,123.0 620.6349206349206,129.0 619.5238095238095,135.0 619.5238095238095,132.0 617.4603174603174,132.0" stroke="rgb(190,150,30)" stroke-width="0.5" /><line stroke="rgb(180,180,180)" stroke-width="1.5" x1="620.6349206349206" x2="661.9047619047619" y1="129.0" y2="129.0" /><path d="M 661.9,127.5 L 662.9,129.2 L 663.9,130.6 L 664.9,131.4 L 665.9,131.4 L 666.9,130.6 L 667.9,129.2 L 668.9,127.5 L 669.9,125.7 L 670.9,124.3 L 671.9,123.6 L 672.9,123.6 L 673.9,124.4 L 674.9,125.8 L 675.9,127.6 L 676.9,129.3 L 677.9,130.7 L 678.9,131.4 L 679.9,131.4 L 681.0,130.6 L 682.0,129.2 L 683.0,127.4 L 684.0,125.7 L 685.0,124.3 L 686.0,123.6 L 687.0,123.6 L 688.0,124.4 L 689.0,125.9 L 690.0,127.6 L 691.0,129.4 L 692.0,130.7 L 693.0,131.4 L 694.0,131.4 L 695.0,130.5 L 696.0,129.1 L 697.0,127.3 L 698.0,125.6 L 699.0,124.3 L 700.0,123.6 L 700.0,126.6 L 699.0,127.3 L 698.0,128.6 L 697.0,130.3 L 696.0,132.1 L 695.0,133.5 L 694.0,134.4 L 693.0,134.4 L 692.0,133.7 L 691.0,132.4 L 690.0,130.6 L 689.0,128.9 L 688.0,127.4 L 687.0,126.6 L 686.0,126.6 L 685.0,127.3 L 684.0,128.7 L 683.0,130.4 L 682.0,132.2 L 681.0,133.6 L 679.9,134.4 L 678.9,134.4 L 677.9,133.7 L 676.9,132.3 L 675.9,130.6 L 674.9,128.8 L 673.9,127.4 L 672.9,126.6 L 671.9,126.6 L 670.9,127.3 L 669.9,128.7 L 668.9,130.5 L 667.9,132.2 L 666.9,133.6 L 665.9,134.4 L 664.9,134.4 L 663.9,133.6 L 662.9,132.2 L 661.9,130.5 Z" fill="rgb(230,90,90)" stroke="rgb(180,60,60)" stroke-width="0.5" /><line stroke="rgb(180,180,180)" stroke-width="1.5" x1="700.0" x2="728.5714285714286" y1="129.0" y2="129.0" /><path d="M 728.6,127.5 L 729.0,128.3 L 729.5,129.2 L 730.0,129.9 L 730.5,130.5 L 731.0,131.0 L 731.4,131.3 L 731.9,131.5 L 732.4,131.5 L 732.9,131.3 L 733.3,130.9 L 733.8,130.3 L 734.3,129.7 L 734.8,128.9 L 735.2,128.1 L 735.7,127.2 L 736.2,126.4 L 736.7,125.6 L 737.1,124.9 L 737.6,124.3 L 738.1,123.9 L 738.1,126.9 L 737.6,127.3 L 737.1,127.9 L 736.7,128.6 L 736.2,129.4 L 735.7,130.2 L 735.2,131.1 L 734.8,131.9 L 734.3,132.7 L 733.8,133.3 L 733.3,133.9 L 732.9,134.3 L 732.4,134.5 L 731.9,134.5 L 731.4,134.3 L 731.0,134.0 L 730.5,133.5 L 730.0,132.9 L 729.5,132.2 L 729.0,131.3 L 728.6,130.5 Z" fill="rgb(230,90,90)" stroke="rgb(180,60,60)" stroke-width="0.5" /><line stroke="rgb(180,180,180)" stroke-width="1.5" x1="738.0952380952381" x2="741.2698412698412" y1="129.0" y2="129.0" /><path d="M 741.3,127.5 L 742.3,129.3 L 743.3,130.7 L 744.3,131.4 L 745.3,131.4 L 746.3,130.6 L 747.3,129.1 L 748.4,127.3 L 749.4,125.6 L 750.4,124.2 L 751.4,123.6 L 752.4,123.7 L 753.4,124.5 L 754.4,126.0 L 755.4,127.8 L 756.5,129.5 L 757.5,130.8 L 758.5,131.5 L 759.5,131.3 L 760.5,130.3 L 761.5,128.8 L 762.5,127.0 L 763.5,125.3 L 764.6,124.1 L 765.6,123.5 L 766.6,123.8 L 767.6,124.8 L 768.6,126.3 L 769.6,128.1 L 770.6,129.8 L 771.6,131.0 L 772.7,131.5 L 773.7,131.2 L 774.7,130.1 L 775.7,128.5 L 776.7,126.7 L 777.7,125.1 L 778.7,123.9 L 779.7,123.5 L 780.8,123.9 L 781.8,125.0 L 782.8,126.6 L 783.8,128.4 L 784.8,130.1 L 785.8,131.1 L 786.8,131.5 L 787.8,131.0 L 788.9,129.9 L 789.9,128.2 L 790.9,126.4 L 791.9,124.8 L 792.9,123.8 L 793.9,123.5 L 794.9,124.0 L 795.9,125.3 L 797.0,126.9 L 798.0,128.7 L 799.0,130.3 L 800.0,131.3 L 800.0,134.3 L 799.0,133.3 L 798.0,131.7 L 797.0,129.9 L 795.9,128.3 L 794.9,127.0 L 793.9,126.5 L 792.9,126.8 L 791.9,127.8 L 790.9,129.4 L 789.9,131.2 L 788.9,132.9 L 787.8,134.0 L 786.8,134.5 L 785.8,134.1 L 784.8,133.1 L 783.8,131.4 L 782.8,129.6 L 781.8,128.0 L 780.8,126.9 L 779.7,126.5 L 778.7,126.9 L 777.7,128.1 L 776.7,129.7 L 775.7,131.5 L 774.7,133.1 L 773.7,134.2 L 772.7,134.5 L 771.6,134.0 L 770.6,132.8 L 769.6,131.1 L 768.6,129.3 L 767.6,127.8 L 766.6,126.8 L 765.6,126.5 L 764.6,127.1 L 763.5,128.3 L 762.5,130.0 L 761.5,131.8 L 760.5,133.3 L 759.5,134.3 L 758.5,134.5 L 757.5,133.8 L 756.5,132.5 L 755.4,130.8 L 754.4,129.0 L 753.4,127.5 L 752.4,126.7 L 751.4,126.6 L 750.4,127.2 L 749.4,128.6 L 748.4,130.3 L 747.3,132.1 L 746.3,133.6 L 745.3,134.4 L 744.3,134.4 L 743.3,133.7 L 742.3,132.3 L 741.3,130.5 Z" fill="rgb(230,90,90)" stroke="rgb(180,60,60)" stroke-width="0.5" /><line stroke="gray" stroke-width="1" x1="200.0" x2="200.0" y1="137" y2="142" /><line stroke="gray" stroke-width="1" x1="358.73015873015873" x2="358.73015873015873" y1="137" y2="142" /><text fill="gray" font-size="10px" text-anchor="middle" x="358.73015873015873" y="155">50</text><line stroke="gray" stroke-width="1" x1="517.4603174603175" x2="517.4603174603175" y1="137" y2="142" /><text fill="gray" font-size="10px" text-anchor="middle" x="517.4603174603175" y="155">100</text><line stroke="gray" stroke-width="1" x1="676.1904761904761" x2="676.1904761904761" y1="137" y2="142" /><text fill="gray" font-size="10px" text-anchor="middle" x="676.1904761904761" y="155">150</text><text fill="black" font-size="14px" text-anchor="end" x="190" y="273">e-linsi.fa</text><line stroke="black" stroke-width="2" x1="200" x2="780.952380952381" y1="268" y2="268" /><line stroke="rgb(21,164,164)" stroke-width="1.5" x1="222.22222222222223" x2="222.22222222222223" y1="268" y2="258" /><text fill="rgb(21,164,164)" font-size="8px" text-anchor="middle" x="222.22222222222223" y="245">7</text><text fill="rgb(21,164,164)" font-size="12px" font-weight="bold" text-anchor="middle" x="222.22222222222223" y="253">H</text><line stroke="rgb(21,164,164)" stroke-width="1.5" x1="247.61904761904762" x2="247.61904761904762" y1="268" y2="258" /><text fill="rgb(21,164,164)" font-size="8px" text-anchor="middle" x="247.61904761904762" y="245">15</text><text fill="rgb(21,164,164)" font-size="12px" font-weight="bold" text-anchor="middle" x="247.61904761904762" y="253">H</text><line stroke="rgb(100,150,255)" stroke-width="1.5" x1="263.4920634920635" x2="263.4920634920635" y1="268" y2="233" /><text fill="rgb(100,150,255)" font-size="8px" text-anchor="middle" x="263.4920634920635" y="220">20</text><text fill="rgb(100,150,255)" font-size="12px" font-weight="bold" text-anchor="middle" x="263.4920634920635" y="228">F</text><line stroke="rgb(21,164,164)" stroke-width="1.5" x1="276.1904761904762" x2="276.1904761904762" y1="268" y2="258" /><text fill="rgb(21,164,164)" font-size="8px" text-anchor="middle" x="276.1904761904762" y="245">24</text><text fill="rgb(21,164,164)" font-size="12px" font-weight="bold" text-anchor="middle" x="276.1904761904762" y="253">H</text><line stroke="rgb(230,10,10)" stroke-width="1.5" x1="279.3650793650794" x2="279.3650793650794" y1="268" y2="208" /><text fill="rgb(230,10,10)" font-size="8px" text-anchor="middle" x="279.3650793650794" y="195">25</text><text fill="rgb(230,10,10)" font-size="12px" font-weight="bold" text-anchor="middle" x="279.3650793650794" y="203">R</text><line stroke="rgb(204,0,204)" stroke-width="1.5" x1="301.58730158730157" x2="301.58730158730157" y1="268" y2="258" /><text fill="rgb(204,0,204)" font-size="8px" text-anchor="middle" x="301.58730158730157" y="245">32</text><text fill="rgb(204,0,204)" font-size="12px" font-weight="bold" text-anchor="middle" x="301.58730158730157" y="253">E</text><line stroke="rgb(100,150,255)" stroke-width="1.5" x1="349.2063492063492" x2="349.2063492063492" y1="268" y2="258" /><text fill="rgb(100,150,255)" font-size="8px" text-anchor="middle" x="349.2063492063492" y="245">47</text><text fill="rgb(100,150,255)" font-size="12px" font-weight="bold" text-anchor="middle" x="349.2063492063492" y="253">P</text><line stroke="rgb(100,150,255)" stroke-width="1.5" x1="355.55555555555554" x2="355.55555555555554" y1="268" y2="233" /><text fill="rgb(100,150,255)" font-size="8px" text-anchor="middle" x="355.55555555555554" y="220">49</text><text fill="rgb(100,150,255)" font-size="12px" font-weight="bold" text-anchor="middle" x="355.55555555555554" y="228">W</text><line stroke="rgb(100,150,255)" stroke-width="1.5" x1="384.12698412698415" x2="384.12698412698415" y1="268" y2="258" /><text fill="rgb(100,150,255)" font-size="8px" text-anchor="middle" x="384.12698412698415" y="245">58</text><text fill="rgb(100,150,255)" font-size="12px" font-weight="bold" text-anchor="middle" x="384.12698412698415" y="253">P</text><line stroke="rgb(21,192,21)" stroke-width="1.5" x1="393.6507936507937" x2="393.6507936507937" y1="268" y2="233" /><text fill="rgb(21,192,21)" font-size="8px" text-anchor="middle" x="393.6507936507937" y="220">61</text><text fill="rgb(21,192,21)" font-size="12px" font-weight="bold" text-anchor="middle" x="393.6507936507937" y="228">S</text><line stroke="rgb(230,130,0)" stroke-width="1.5" x1="422.22222222222223" x2="422.22222222222223" y1="268" y2="258" /><text fill="rgb(230,130,0)" font-size="8px" text-anchor="middle" x="422.22222222222223" y="245">70</text><text fill="rgb(230,130,0)" font-size="12px" font-weight="bold" text-anchor="middle" x="422.22222222222223" y="253">G</text><line stroke="rgb(255,140,180)" stroke-width="1.5" x1="450.79365079365084" x2="450.79365079365084" y1="268" y2="258" /><text fill="rgb(255,140,180)" font-size="8px" text-anchor="middle" x="450.79365079365084" y="245">79</text><text fill="rgb(255,140,180)" font-size="12px" font-weight="bold" text-anchor="middle" x="450.79365079365084" y="253">C</text><line stroke="rgb(230,130,0)" stroke-width="1.5" x1="463.4920634920635" x2="463.4920634920635" y1="268" y2="233" /><text fill="rgb(230,130,0)" font-size="8px" text-anchor="middle" x="463.4920634920635" y="220">83</text><text fill="rgb(230,130,0)" font-size="12px" font-weight="bold" text-anchor="middle" x="463.4920634920635" y="228">G</text><line stroke="rgb(255,140,180)" stroke-width="1.5" x1="511.11111111111114" x2="511.11111111111114" y1="268" y2="258" /><text fill="rgb(255,140,180)" font-size="8px" text-anchor="middle" x="511.11111111111114" y="245">98</text><text fill="rgb(255,140,180)" font-size="12px" font-weight="bold" text-anchor="middle" x="511.11111111111114" y="253">C</text><line stroke="rgb(230,10,10)" stroke-width="1.5" x1="520.6349206349207" x2="520.6349206349207" y1="268" y2="233" /><text fill="rgb(230,10,10)" font-size="8px" text-anchor="middle" x="520.6349206349207" y="220">101</text><text fill="rgb(230,10,10)" font-size="12px" font-weight="bold" text-anchor="middle" x="520.6349206349207" y="228">R</text><line stroke="rgb(21,164,164)" stroke-width="1.5" x1="631.7460317460318" x2="631.7460317460318" y1="268" y2="258" /><text fill="rgb(21,164,164)" font-size="8px" text-anchor="middle" x="631.7460317460318" y="245">136</text><text fill="rgb(21,164,164)" font-size="12px" font-weight="bold" text-anchor="middle" x="631.7460317460318" y="253">H</text><line stroke="rgb(21,164,164)" stroke-width="1.5" x1="644.4444444444445" x2="644.4444444444445" y1="268" y2="233" /><text fill="rgb(21,164,164)" font-size="8px" text-anchor="middle" x="644.4444444444445" y="220">140</text><text fill="rgb(21,164,164)" font-size="12px" font-weight="bold" text-anchor="middle" x="644.4444444444445" y="228">H</text><line stroke="rgb(230,130,0)" stroke-width="1.5" x1="660.3174603174604" x2="660.3174603174604" y1="268" y2="258" /><text fill="rgb(230,130,0)" font-size="8px" text-anchor="middle" x="660.3174603174604" y="245">145</text><text fill="rgb(230,130,0)" font-size="12px" font-weight="bold" text-anchor="middle" x="660.3174603174604" y="253">G</text><line stroke="rgb(204,0,204)" stroke-width="1.5" x1="723.8095238095239" x2="723.8095238095239" y1="268" y2="258" /><text fill="rgb(204,0,204)" font-size="8px" text-anchor="middle" x="723.8095238095239" y="245">165</text><text fill="rgb(204,0,204)" font-size="12px" font-weight="bold" text-anchor="middle" x="723.8095238095239" y="253">D</text><line stroke="rgb(100,150,255)" stroke-width="1.5" x1="733.3333333333334" x2="733.3333333333334" y1="268" y2="233" /><text fill="rgb(100,150,255)" font-size="8px" text-anchor="middle" x="733.3333333333334" y="220">168</text><text fill="rgb(100,150,255)" font-size="12px" font-weight="bold" text-anchor="middle" x="733.3333333333334" y="228">F</text><line stroke="rgb(21,164,164)" stroke-width="1.5" x1="742.8571428571429" x2="742.8571428571429" y1="268" y2="208" /><text fill="rgb(21,164,164)" font-size="8px" text-anchor="middle" x="742.8571428571429" y="195">171</text><text fill="rgb(21,164,164)" font-size="12px" font-weight="bold" text-anchor="middle" x="742.8571428571429" y="203">H</text><line stroke="rgb(21,164,164)" stroke-width="1.5" x1="746.031746031746" x2="746.031746031746" y1="268" y2="183" /><text fill="rgb(21,164,164)" font-size="8px" text-anchor="middle" x="746.031746031746" y="170">172</text><text fill="rgb(21,164,164)" font-size="12px" font-weight="bold" text-anchor="middle" x="746.031746031746" y="178">H</text><line stroke="rgb(204,0,204)" stroke-width="1.5" x1="758.7301587301588" x2="758.7301587301588" y1="268" y2="258" /><text fill="rgb(204,0,204)" font-size="8px" text-anchor="middle" x="758.7301587301588" y="245">176</text><text fill="rgb(204,0,204)" font-size="12px" font-weight="bold" text-anchor="middle" x="758.7301587301588" y="253">D</text><path d="M 201.6,277.5 L 202.6,279.3 L 203.6,280.7 L 204.6,281.4 L 205.7,281.4 L 206.7,280.5 L 207.7,279.1 L 208.7,277.3 L 209.7,275.6 L 210.7,274.2 L 211.7,273.5 L 212.8,273.7 L 213.8,274.6 L 214.8,276.1 L 215.8,277.9 L 216.8,279.6 L 217.8,280.9 L 218.9,281.5 L 219.9,281.3 L 220.9,280.3 L 221.9,278.7 L 222.9,276.9 L 223.9,275.2 L 225.0,274.0 L 226.0,273.5 L 227.0,273.8 L 227.0,276.8 L 226.0,276.5 L 225.0,277.0 L 223.9,278.2 L 222.9,279.9 L 221.9,281.7 L 220.9,283.3 L 219.9,284.3 L 218.9,284.5 L 217.8,283.9 L 216.8,282.6 L 215.8,280.9 L 214.8,279.1 L 213.8,277.6 L 212.8,276.7 L 211.7,276.5 L 210.7,277.2 L 209.7,278.6 L 208.7,280.3 L 207.7,282.1 L 206.7,283.5 L 205.7,284.4 L 204.6,284.4 L 203.6,283.7 L 202.6,282.3 L 201.6,280.5 Z" fill="rgb(230,90,90)" stroke="rgb(180,60,60)" stroke-width="0.5" /><line stroke="rgb(180,180,180)" stroke-width="1.5" x1="226.984126984127" x2="233.33333333333334" y1="279.0" y2="279.0" /><path d="M 233.3,277.5 L 233.8,278.3 L 234.3,279.2 L 234.8,279.9 L 235.2,280.5 L 235.7,281.0 L 236.2,281.3 L 236.7,281.5 L 237.1,281.5 L 237.6,281.3 L 238.1,280.9 L 238.6,280.3 L 239.0,279.7 L 239.5,278.9 L 240.0,278.1 L 240.5,277.2 L 241.0,276.4 L 241.4,275.6 L 241.9,274.9 L 242.4,274.3 L 242.9,273.9 L 242.9,276.9 L 242.4,277.3 L 241.9,277.9 L 241.4,278.6 L 241.0,279.4 L 240.5,280.2 L 240.0,281.1 L 239.5,281.9 L 239.0,282.7 L 238.6,283.3 L 238.1,283.9 L 237.6,284.3 L 237.1,284.5 L 236.7,284.5 L 236.2,284.3 L 235.7,284.0 L 235.2,283.5 L 234.8,282.9 L 234.3,282.2 L 233.8,281.3 L 233.3,280.5 Z" fill="rgb(230,90,90)" stroke="rgb(180,60,60)" stroke-width="0.5" /><line stroke="rgb(180,180,180)" stroke-width="1.5" x1="242.85714285714286" x2="261.9047619047619" y1="279.0" y2="279.0" /><path d="M 261.9,277.5 L 262.9,279.2 L 263.9,280.6 L 264.9,281.4 L 265.9,281.4 L 266.9,280.6 L 268.0,279.2 L 269.0,277.4 L 270.0,275.7 L 271.0,274.3 L 272.0,273.6 L 273.0,273.6 L 274.0,274.5 L 275.0,275.9 L 276.0,277.7 L 277.0,279.4 L 278.0,280.8 L 279.0,281.4 L 280.0,281.3 L 281.1,280.5 L 282.1,279.0 L 283.1,277.2 L 284.1,275.5 L 285.1,274.2 L 286.1,273.5 L 287.1,273.7 L 288.1,274.6 L 289.1,276.1 L 290.1,277.9 L 291.1,279.6 L 292.1,280.9 L 293.1,281.5 L 294.2,281.3 L 295.2,280.3 L 296.2,278.8 L 297.2,277.0 L 298.2,275.3 L 299.2,274.1 L 300.2,273.5 L 301.2,273.8 L 302.2,274.8 L 303.2,276.3 L 304.2,278.1 L 305.2,279.8 L 306.2,281.0 L 307.3,281.5 L 308.3,281.2 L 309.3,280.2 L 310.3,278.6 L 311.3,276.8 L 312.3,275.2 L 313.3,274.0 L 314.3,273.5 L 315.3,273.8 L 316.3,274.9 L 317.3,276.5 L 318.3,278.3 L 319.3,279.9 L 320.4,281.1 L 321.4,281.5 L 322.4,281.1 L 323.4,280.0 L 324.4,278.4 L 325.4,276.6 L 325.4,279.6 L 324.4,281.4 L 323.4,283.0 L 322.4,284.1 L 321.4,284.5 L 320.4,284.1 L 319.3,282.9 L 318.3,281.3 L 317.3,279.5 L 316.3,277.9 L 315.3,276.8 L 314.3,276.5 L 313.3,277.0 L 312.3,278.2 L 311.3,279.8 L 310.3,281.6 L 309.3,283.2 L 308.3,284.2 L 307.3,284.5 L 306.2,284.0 L 305.2,282.8 L 304.2,281.1 L 303.2,279.3 L 302.2,277.8 L 301.2,276.8 L 300.2,276.5 L 299.2,277.1 L 298.2,278.3 L 297.2,280.0 L 296.2,281.8 L 295.2,283.3 L 294.2,284.3 L 293.1,284.5 L 292.1,283.9 L 291.1,282.6 L 290.1,280.9 L 289.1,279.1 L 288.1,277.6 L 287.1,276.7 L 286.1,276.5 L 285.1,277.2 L 284.1,278.5 L 283.1,280.2 L 282.1,282.0 L 281.1,283.5 L 280.0,284.3 L 279.0,284.4 L 278.0,283.8 L 277.0,282.4 L 276.0,280.7 L 275.0,278.9 L 274.0,277.5 L 273.0,276.6 L 272.0,276.6 L 271.0,277.3 L 270.0,278.7 L 269.0,280.4 L 268.0,282.2 L 266.9,283.6 L 265.9,284.4 L 264.9,284.4 L 263.9,283.6 L 262.9,282.2 L 261.9,280.5 Z" fill="rgb(230,90,90)" stroke="rgb(180,60,60)" stroke-width="0.5" /><line stroke="rgb(180,180,180)" stroke-width="1.5" x1="325.3968253968254" x2="350.79365079365084" y1="279.0" y2="279.0" /><polygon fill="rgb(240,195,50)" points="350.79365079365084,276.0 352.8571428571429,276.0 352.8571428571429,273.0 353.968253968254,279.0 352.8571428571429,285.0 352.8571428571429,282.0 350.79365079365084,282.0" stroke="rgb(190,150,30)" stroke-width="0.5" /><line stroke="rgb(180,180,180)" stroke-width="1.5" x1="353.968253968254" x2="360.31746031746036" y1="279.0" y2="279.0" /><path d="M 360.3,277.5 L 361.0,278.6 L 361.6,279.7 L 362.2,280.5 L 362.9,281.1 L 363.5,281.5 L 364.1,281.5 L 364.8,281.1 L 365.4,280.5 L 366.0,279.7 L 366.7,278.7 L 367.3,277.5 L 367.9,276.4 L 368.6,275.4 L 369.2,274.5 L 369.8,273.9 L 370.5,273.5 L 371.1,273.5 L 371.7,273.8 L 372.4,274.4 L 373.0,275.3 L 373.0,278.3 L 372.4,277.4 L 371.7,276.8 L 371.1,276.5 L 370.5,276.5 L 369.8,276.9 L 369.2,277.5 L 368.6,278.4 L 367.9,279.4 L 367.3,280.5 L 366.7,281.7 L 366.0,282.7 L 365.4,283.5 L 364.8,284.1 L 364.1,284.5 L 363.5,284.5 L 362.9,284.1 L 362.2,283.5 L 361.6,282.7 L 361.0,281.6 L 360.3,280.5 Z" fill="rgb(230,90,90)" stroke="rgb(180,60,60)" stroke-width="0.5" /><line stroke="rgb(180,180,180)" stroke-width="1.5" x1="373.015873015873" x2="382.53968253968253" y1="279.0" y2="279.0" /><path d="M 382.5,277.5 L 383.0,278.3 L 383.5,279.2 L 384.0,279.9 L 384.4,280.5 L 384.9,281.0 L 385.4,281.3 L 385.9,281.5 L 386.3,281.5 L 386.8,281.3 L 387.3,280.9 L 387.8,280.3 L 388.3,279.7 L 388.7,278.9 L 389.2,278.1 L 389.7,277.2 L 390.2,276.4 L 390.6,275.6 L 391.1,274.9 L 391.6,274.3 L 392.1,273.9 L 392.1,276.9 L 391.6,277.3 L 391.1,277.9 L 390.6,278.6 L 390.2,279.4 L 389.7,280.2 L 389.2,281.1 L 388.7,281.9 L 388.3,282.7 L 387.8,283.3 L 387.3,283.9 L 386.8,284.3 L 386.3,284.5 L 385.9,284.5 L 385.4,284.3 L 384.9,284.0 L 384.4,283.5 L 384.0,282.9 L 383.5,282.2 L 383.0,281.3 L 382.5,280.5 Z" fill="rgb(230,90,90)" stroke="rgb(180,60,60)" stroke-width="0.5" /><line stroke="rgb(180,180,180)" stroke-width="1.5" x1="392.06349206349205" x2="395.23809523809524" y1="279.0" y2="279.0" /><path d="M 395.2,277.5 L 395.7,278.3 L 396.2,279.2 L 396.7,279.9 L 397.1,280.5 L 397.6,281.0 L 398.1,281.3 L 398.6,281.5 L 399.0,281.5 L 399.5,281.3 L 400.0,280.9 L 400.5,280.3 L 401.0,279.7 L 401.4,278.9 L 401.9,278.1 L 402.4,277.2 L 402.9,276.4 L 403.3,275.6 L 403.8,274.9 L 404.3,274.3 L 404.8,273.9 L 404.8,276.9 L 404.3,277.3 L 403.8,277.9 L 403.3,278.6 L 402.9,279.4 L 402.4,280.2 L 401.9,281.1 L 401.4,281.9 L 401.0,282.7 L 400.5,283.3 L 400.0,283.9 L 399.5,284.3 L 399.0,284.5 L 398.6,284.5 L 398.1,284.3 L 397.6,284.0 L 397.1,283.5 L 396.7,282.9 L 396.2,282.2 L 395.7,281.3 L 395.2,280.5 Z" fill="rgb(230,90,90)" stroke="rgb(180,60,60)" stroke-width="0.5" /><line stroke="rgb(180,180,180)" stroke-width="1.5" x1="404.7619047619048" x2="423.80952380952385" y1="279.0" y2="279.0" /><polygon fill="rgb(240,195,50)" points="423.80952380952385,276.0 425.8730158730159,276.0 425.8730158730159,273.0 426.984126984127,279.0 425.8730158730159,285.0 425.8730158730159,282.0 423.80952380952385,282.0" stroke="rgb(190,150,30)" stroke-width="0.5" /><line stroke="rgb(180,180,180)" stroke-width="1.5" x1="426.984126984127" x2="449.2063492063492" y1="279.0" y2="279.0" /><polygon fill="rgb(240,195,50)" points="449.2063492063492,276.0 451.26984126984127,276.0 451.26984126984127,273.0 452.3809523809524,279.0 451.26984126984127,285.0 451.26984126984127,282.0 449.2063492063492,282.0" stroke="rgb(190,150,30)" stroke-width="0.5" /><line stroke="rgb(180,180,180)" stroke-width="1.5" x1="452.3809523809524" x2="455.55555555555554" y1="279.0" y2="279.0" /><polygon fill="rgb(240,195,50)" points="455.55555555555554,276.0 457.6190476190476,276.0 457.6190476190476,273.0 458.73015873015873,279.0 457.6190476190476,285.0 457.6190476190476,282.0 455.55555555555554,282.0" stroke="rgb(190,150,30)" stroke-width="0.5" /><line stroke="rgb(180,180,180)" stroke-width="1.5" x1="458.73015873015873" x2="484.12698412698415" y1="279.0" y2="279.0" /><polygon fill="rgb(240,195,50)" points="484.12698412698415,276.0 486.1904761904762,276.0 486.1904761904762,273.0 487.30158730158735,279.0 486.1904761904762,285.0 486.1904761904762,282.0 484.12698412698415,282.0" stroke="rgb(190,150,30)" stroke-width="0.5" /><line stroke="rgb(180,180,180)" stroke-width="1.5" x1="487.30158730158735" x2="503.1746031746032" y1="279.0" y2="279.0" /><polygon fill="rgb(240,195,50)" points="503.1746031746032,276.0 505.23809523809524,276.0 505.23809523809524,273.0 506.3492063492064,279.0 505.23809523809524,285.0 505.23809523809524,282.0 503.1746031746032,282.0" stroke="rgb(190,150,30)" stroke-width="0.5" /><line stroke="rgb(180,180,180)" stroke-width="1.5" x1="506.3492063492064" x2="515.8730158730159" y1="279.0" y2="279.0" /><polygon fill="rgb(240,195,50)" points="515.8730158730159,276.0 517.936507936508,276.0 517.936507936508,273.0 519.047619047619,279.0 517.936507936508,285.0 517.936507936508,282.0 515.8730158730159,282.0" stroke="rgb(190,150,30)" stroke-width="0.5" /><line stroke="rgb(180,180,180)" stroke-width="1.5" x1="519.047619047619" x2="550.7936507936508" y1="279.0" y2="279.0" /><path d="M 550.8,277.5 L 551.8,279.3 L 552.8,280.7 L 553.9,281.4 L 554.9,281.4 L 555.9,280.5 L 556.9,279.0 L 558.0,277.2 L 559.0,275.5 L 560.0,274.1 L 561.0,273.5 L 562.1,273.7 L 563.1,274.7 L 564.1,276.3 L 565.1,278.1 L 566.2,279.8 L 567.2,281.0 L 568.2,281.5 L 569.2,281.2 L 570.3,280.1 L 571.3,278.4 L 572.3,276.6 L 573.3,275.0 L 574.3,273.9 L 575.4,273.5 L 576.4,274.0 L 577.4,275.2 L 578.4,276.9 L 579.5,278.7 L 580.5,280.3 L 581.5,281.3 L 582.5,281.5 L 582.5,284.5 L 581.5,284.3 L 580.5,283.3 L 579.5,281.7 L 578.4,279.9 L 577.4,278.2 L 576.4,277.0 L 575.4,276.5 L 574.3,276.9 L 573.3,278.0 L 572.3,279.6 L 571.3,281.4 L 570.3,283.1 L 569.2,284.2 L 568.2,284.5 L 567.2,284.0 L 566.2,282.8 L 565.1,281.1 L 564.1,279.3 L 563.1,277.7 L 562.1,276.7 L 561.0,276.5 L 560.0,277.1 L 559.0,278.5 L 558.0,280.2 L 556.9,282.0 L 555.9,283.5 L 554.9,284.4 L 553.9,284.4 L 552.8,283.7 L 551.8,282.3 L 550.8,280.5 Z" fill="rgb(230,90,90)" stroke="rgb(180,60,60)" stroke-width="0.5" /><line stroke="rgb(180,180,180)" stroke-width="1.5" x1="582.5396825396826" x2="592.063492063492" y1="279.0" y2="279.0" /><path d="M 592.1,277.5 L 593.1,279.3 L 594.1,280.6 L 595.1,281.4 L 596.1,281.4 L 597.1,280.6 L 598.1,279.1 L 599.1,277.4 L 600.1,275.6 L 601.2,274.3 L 602.2,273.6 L 603.2,273.6 L 604.2,274.5 L 605.2,276.0 L 606.2,277.8 L 607.2,279.5 L 608.2,280.8 L 609.2,281.5 L 610.2,281.3 L 611.3,280.4 L 612.3,278.9 L 613.3,277.1 L 614.3,275.4 L 615.3,274.1 L 616.3,273.5 L 617.3,273.7 L 618.3,274.7 L 619.3,276.2 L 620.3,278.0 L 621.4,279.7 L 622.4,280.9 L 623.4,281.5 L 624.4,281.2 L 625.4,280.2 L 626.4,278.7 L 627.4,276.9 L 628.4,275.2 L 629.4,274.0 L 630.4,273.5 L 631.5,273.8 L 632.5,274.9 L 633.5,276.5 L 634.5,278.3 L 635.5,279.9 L 636.5,281.1 L 637.5,281.5 L 638.5,281.1 L 639.5,280.0 L 640.5,278.4 L 641.6,276.6 L 642.6,275.0 L 643.6,273.9 L 644.6,273.5 L 645.6,273.9 L 646.6,275.1 L 647.6,276.7 L 648.6,278.5 L 649.6,280.1 L 650.6,281.2 L 651.7,281.5 L 652.7,281.0 L 653.7,279.8 L 654.7,278.2 L 655.7,276.4 L 656.7,274.8 L 657.7,273.8 L 658.7,273.5 L 658.7,276.5 L 657.7,276.8 L 656.7,277.8 L 655.7,279.4 L 654.7,281.2 L 653.7,282.8 L 652.7,284.0 L 651.7,284.5 L 650.6,284.2 L 649.6,283.1 L 648.6,281.5 L 647.6,279.7 L 646.6,278.1 L 645.6,276.9 L 644.6,276.5 L 643.6,276.9 L 642.6,278.0 L 641.6,279.6 L 640.5,281.4 L 639.5,283.0 L 638.5,284.1 L 637.5,284.5 L 636.5,284.1 L 635.5,282.9 L 634.5,281.3 L 633.5,279.5 L 632.5,277.9 L 631.5,276.8 L 630.4,276.5 L 629.4,277.0 L 628.4,278.2 L 627.4,279.9 L 626.4,281.7 L 625.4,283.2 L 624.4,284.2 L 623.4,284.5 L 622.4,283.9 L 621.4,282.7 L 620.3,281.0 L 619.3,279.2 L 618.3,277.7 L 617.3,276.7 L 616.3,276.5 L 615.3,277.1 L 614.3,278.4 L 613.3,280.1 L 612.3,281.9 L 611.3,283.4 L 610.2,284.3 L 609.2,284.5 L 608.2,283.8 L 607.2,282.5 L 606.2,280.8 L 605.2,279.0 L 604.2,277.5 L 603.2,276.6 L 602.2,276.6 L 601.2,277.3 L 600.1,278.6 L 599.1,280.4 L 598.1,282.1 L 597.1,283.6 L 596.1,284.4 L 595.1,284.4 L 594.1,283.6 L 593.1,282.3 L 592.1,280.5 Z" fill="rgb(230,90,90)" stroke="rgb(180,60,60)" stroke-width="0.5" /><line stroke="rgb(180,180,180)" stroke-width="1.5" x1="658.7301587301588" x2="668.2539682539683" y1="279.0" y2="279.0" /><polygon fill="rgb(240,195,50)" points="668.2539682539683,276.0 670.3174603174604,276.0 670.3174603174604,273.0 671.4285714285714,279.0 670.3174603174604,285.0 670.3174603174604,282.0 668.2539682539683,282.0" stroke="rgb(190,150,30)" stroke-width="0.5" /><line stroke="rgb(180,180,180)" stroke-width="1.5" x1="671.4285714285714" x2="687.3015873015873" y1="279.0" y2="279.0" /><polygon fill="rgb(240,195,50)" points="687.3015873015873,276.0 689.3650793650795,276.0 689.3650793650795,273.0 690.4761904761906,279.0 689.3650793650795,285.0 689.3650793650795,282.0 687.3015873015873,282.0" stroke="rgb(190,150,30)" stroke-width="0.5" /><line stroke="rgb(180,180,180)" stroke-width="1.5" x1="690.4761904761906" x2="693.6507936507937" y1="279.0" y2="279.0" /><path d="M 693.7,277.5 L 694.1,278.3 L 694.6,279.2 L 695.1,279.9 L 695.6,280.5 L 696.0,281.0 L 696.5,281.3 L 697.0,281.5 L 697.5,281.5 L 697.9,281.3 L 698.4,280.9 L 698.9,280.3 L 699.4,279.7 L 699.8,278.9 L 700.3,278.1 L 700.8,277.2 L 701.3,276.4 L 701.7,275.6 L 702.2,274.9 L 702.7,274.3 L 703.2,273.9 L 703.2,276.9 L 702.7,277.3 L 702.2,277.9 L 701.7,278.6 L 701.3,279.4 L 700.8,280.2 L 700.3,281.1 L 699.8,281.9 L 699.4,282.7 L 698.9,283.3 L 698.4,283.9 L 697.9,284.3 L 697.5,284.5 L 697.0,284.5 L 696.5,284.3 L 696.0,284.0 L 695.6,283.5 L 695.1,282.9 L 694.6,282.2 L 694.1,281.3 L 693.7,280.5 Z" fill="rgb(230,90,90)" stroke="rgb(180,60,60)" stroke-width="0.5" /><line stroke="rgb(180,180,180)" stroke-width="1.5" x1="703.1746031746031" x2="712.6984126984128" y1="279.0" y2="279.0" /><path d="M 712.7,277.5 L 713.2,278.3 L 713.7,279.2 L 714.1,279.9 L 714.6,280.5 L 715.1,281.0 L 715.6,281.3 L 716.0,281.5 L 716.5,281.5 L 717.0,281.3 L 717.5,280.9 L 717.9,280.3 L 718.4,279.7 L 718.9,278.9 L 719.4,278.1 L 719.8,277.2 L 720.3,276.4 L 720.8,275.6 L 721.3,274.9 L 721.7,274.3 L 722.2,273.9 L 722.2,276.9 L 721.7,277.3 L 721.3,277.9 L 720.8,278.6 L 720.3,279.4 L 719.8,280.2 L 719.4,281.1 L 718.9,281.9 L 718.4,282.7 L 717.9,283.3 L 717.5,283.9 L 717.0,284.3 L 716.5,284.5 L 716.0,284.5 L 715.6,284.3 L 715.1,284.0 L 714.6,283.5 L 714.1,282.9 L 713.7,282.2 L 713.2,281.3 L 712.7,280.5 Z" fill="rgb(230,90,90)" stroke="rgb(180,60,60)" stroke-width="0.5" /><line stroke="rgb(180,180,180)" stroke-width="1.5" x1="722.2222222222223" x2="728.5714285714287" y1="279.0" y2="279.0" /><path d="M 728.6,277.5 L 729.6,279.2 L 730.6,280.6 L 731.6,281.4 L 732.6,281.4 L 733.6,280.6 L 734.6,279.2 L 735.6,277.4 L 736.6,275.7 L 737.6,274.3 L 738.6,273.6 L 739.7,273.6 L 740.7,274.5 L 741.7,275.9 L 742.7,277.7 L 743.7,279.4 L 744.7,280.8 L 745.7,281.4 L 746.7,281.3 L 747.7,280.5 L 748.7,279.0 L 749.7,277.2 L 750.7,275.5 L 751.7,274.2 L 752.7,273.5 L 753.8,273.7 L 754.8,274.6 L 755.8,276.1 L 756.8,277.9 L 757.8,279.6 L 758.8,280.9 L 759.8,281.5 L 760.8,281.3 L 761.8,280.3 L 762.8,278.8 L 763.8,277.0 L 764.8,275.4 L 765.8,274.1 L 766.8,273.5 L 767.9,273.7 L 768.9,274.7 L 769.9,276.3 L 770.9,278.1 L 771.9,279.7 L 772.9,281.0 L 773.9,281.5 L 774.9,281.2 L 775.9,280.2 L 776.9,278.6 L 777.9,276.9 L 778.9,275.2 L 779.9,274.0 L 781.0,273.5 L 781.0,276.5 L 779.9,277.0 L 778.9,278.2 L 777.9,279.9 L 776.9,281.6 L 775.9,283.2 L 774.9,284.2 L 773.9,284.5 L 772.9,284.0 L 771.9,282.7 L 770.9,281.1 L 769.9,279.3 L 768.9,277.7 L 767.9,276.7 L 766.8,276.5 L 765.8,277.1 L 764.8,278.4 L 763.8,280.0 L 762.8,281.8 L 761.8,283.3 L 760.8,284.3 L 759.8,284.5 L 758.8,283.9 L 757.8,282.6 L 756.8,280.9 L 755.8,279.1 L 754.8,277.6 L 753.8,276.7 L 752.7,276.5 L 751.7,277.2 L 750.7,278.5 L 749.7,280.2 L 748.7,282.0 L 747.7,283.5 L 746.7,284.3 L 745.7,284.4 L 744.7,283.8 L 743.7,282.4 L 742.7,280.7 L 741.7,278.9 L 740.7,277.5 L 739.7,276.6 L 738.6,276.6 L 737.6,277.3 L 736.6,278.7 L 735.6,280.4 L 734.6,282.2 L 733.6,283.6 L 732.6,284.4 L 731.6,284.4 L 730.6,283.6 L 729.6,282.2 L 728.6,280.5 Z" fill="rgb(230,90,90)" stroke="rgb(180,60,60)" stroke-width="0.5" /><line stroke="gray" stroke-width="1" x1="200.0" x2="200.0" y1="287" y2="292" /><line stroke="gray" stroke-width="1" x1="358.73015873015873" x2="358.73015873015873" y1="287" y2="292" /><text fill="gray" font-size="10px" text-anchor="middle" x="358.73015873015873" y="305">50</text><line stroke="gray" stroke-width="1" x1="517.4603174603175" x2="517.4603174603175" y1="287" y2="292" /><text fill="gray" font-size="10px" text-anchor="middle" x="517.4603174603175" y="305">100</text><line stroke="gray" stroke-width="1" x1="676.1904761904761" x2="676.1904761904761" y1="287" y2="292" /><text fill="gray" font-size="10px" text-anchor="middle" x="676.1904761904761" y="305">150</text><line stroke="rgb(21,164,164)" stroke-dasharray="3,3" stroke-opacity="0.4" stroke-width="1" x1="222.22222222222223" x2="222.22222222222223" y1="118" y2="268" /><line stroke="rgb(21,164,164)" stroke-dasharray="3,3" stroke-opacity="0.4" stroke-width="1" x1="241.26984126984127" x2="247.61904761904762" y1="118" y2="268" /><line stroke="rgb(100,150,255)" stroke-dasharray="3,3" stroke-opacity="0.4" stroke-width="1" x1="257.1428571428571" x2="263.4920634920635" y1="118" y2="268" /><line stroke="rgb(21,164,164)" stroke-dasharray="3,3" stroke-opacity="0.4" stroke-width="1" x1="269.8412698412698" x2="276.1904761904762" y1="118" y2="268" /><line stroke="rgb(230,10,10)" stroke-dasharray="3,3" stroke-opacity="0.4" stroke-width="1" x1="273.015873015873" x2="279.3650793650794" y1="118" y2="268" /><line stroke="rgb(204,0,204)" stroke-dasharray="3,3" stroke-opacity="0.4" stroke-width="1" x1="295.23809523809524" x2="301.58730158730157" y1="118" y2="268" /><line stroke="rgb(230,10,10)" stroke-dasharray="3,3" stroke-opacity="0.4" stroke-width="1" x1="507.9365079365079" x2="520.6349206349206" y1="118" y2="268" /><line stroke="rgb(21,164,164)" stroke-dasharray="3,3" stroke-opacity="0.4" stroke-width="1" x1="676.1904761904761" x2="631.7460317460318" y1="118" y2="268" /><line stroke="rgb(21,164,164)" stroke-dasharray="3,3" stroke-opacity="0.4" stroke-width="1" x1="688.8888888888889" x2="644.4444444444443" y1="118" y2="268" /><line stroke="rgb(100,150,255)" stroke-dasharray="3,3" stroke-opacity="0.4" stroke-width="1" x1="742.8571428571428" x2="726.984126984127" y1="118" y2="268" /><line stroke="rgb(100,150,255)" stroke-dasharray="3,3" stroke-opacity="0.4" stroke-width="1" x1="749.2063492063492" x2="733.3333333333333" y1="118" y2="268" /><line stroke="rgb(21,164,164)" stroke-dasharray="3,3" stroke-opacity="0.4" stroke-width="1" x1="761.9047619047619" x2="746.031746031746" y1="118" y2="268" /><line stroke="rgb(204,0,204)" stroke-dasharray="3,3" stroke-opacity="0.4" stroke-width="1" x1="774.6031746031746" x2="758.7301587301587" y1="118" y2="268" /><path d="M 200.0,326.5 L 201.0,327.2 L 202.0,327.9 L 203.0,328.5 L 204.0,329.1 L 205.0,329.6 L 206.0,330.0 L 207.0,330.3 L 208.0,330.4 L 209.0,330.5 L 210.0,330.4 L 211.0,330.3 L 212.0,330.0 L 213.0,329.6 L 214.0,329.1 L 215.0,328.5 L 216.0,327.9 L 217.0,327.2 L 218.0,326.5 L 219.0,325.8 L 220.0,325.1 L 221.0,324.5 L 222.0,323.9 L 223.0,323.4 L 224.0,323.0 L 225.0,322.7 L 226.0,322.6 L 227.0,322.5 L 228.0,322.6 L 229.0,322.7 L 230.0,323.0 L 230.0,326.0 L 229.0,325.7 L 228.0,325.6 L 227.0,325.5 L 226.0,325.6 L 225.0,325.7 L 224.0,326.0 L 223.0,326.4 L 222.0,326.9 L 221.0,327.5 L 220.0,328.1 L 219.0,328.8 L 218.0,329.5 L 217.0,330.2 L 216.0,330.9 L 215.0,331.5 L 214.0,332.1 L 213.0,332.6 L 212.0,333.0 L 211.0,333.3 L 210.0,333.4 L 209.0,333.5 L 208.0,333.4 L 207.0,333.3 L 206.0,333.0 L 205.0,332.6 L 204.0,332.1 L 203.0,331.5 L 202.0,330.9 L 201.0,330.2 L 200.0,329.5 Z" fill="rgb(230,90,90)" stroke="rgb(180,60,60)" stroke-width="0.5" /><text fill="black" font-size="12px" x="235" y="332">Helix</text><polygon fill="rgb(240,195,50)" points="280,325.0 302,325.0 302,322.0 310,328 302,334.0 302,331.0 280,331.0" stroke="rgb(190,150,30)" stroke-width="0.5" /><text fill="black" font-size="12px" x="315" y="332">Sheet</text><line stroke="rgb(180,180,180)" stroke-width="1.5" x1="360" x2="390" y1="328" y2="328" /><text fill="black" font-size="12px" x="395" y="332">Coil</text><line stroke="gray" stroke-dasharray="3,3" stroke-opacity="0.4" stroke-width="1" x1="200" x2="230" y1="353" y2="353" /><text fill="black" font-size="12px" x="235" y="357">Conserved across all groups</text></svg>