<svg baseProfile="full" height="570" version="1.1" viewBox="0,0,900,570" width="900" xmlns="http://www.w3.org/2000/svg" xmlns:ev="http://www.w3.org/2001/xml-events" xmlns:xlink="http://www.w3.org/1999/xlink"><defs /><text fill="black" font-size="14px" text-anchor="end" x="190" y="148">Hemoglobin α</text><line stroke="black" stroke-width="2" x1="200" x2="771.8120805369127" y1="143" y2="143" /><line stroke="rgb(230,130,0)" stroke-width="1.5" x1="304.6979865771812" x2="304.6979865771812" y1="143" y2="133" /><text fill="rgb(230,130,0)" font-size="8px" text-anchor="middle" x="304.6979865771812" y="118">26</text><text fill="rgb(230,130,0)" font-size="12px" font-weight="bold" text-anchor="middle" x="304.6979865771812" y="128">G</text><line stroke="rgb(100,150,255)" stroke-width="1.5" x1="320.80536912751677" x2="320.80536912751677" y1="143" y2="108" /><text fill="rgb(100,150,255)" font-size="8px" text-anchor="middle" x="320.80536912751677" y="93">30</text><text fill="rgb(100,150,255)" font-size="12px" font-weight="bold" text-anchor="middle" x="320.80536912751677" y="103">L</text><line stroke="rgb(230,10,10)" stroke-width="1.5" x1="328.8590604026846" x2="328.8590604026846" y1="143" y2="83" /><text fill="rgb(230,10,10)" font-size="8px" text-anchor="middle" x="328.8590604026846" y="68">32</text><text fill="rgb(230,10,10)" font-size="12px" font-weight="bold" text-anchor="middle" x="328.8590604026846" y="78">R</text><line stroke="rgb(100,150,255)" stroke-width="1.5" x1="353.0201342281879" x2="353.0201342281879" y1="143" y2="133" /><text fill="rgb(100,150,255)" font-size="8px" text-anchor="middle" x="353.0201342281879" y="118">38</text><text fill="rgb(100,150,255)" font-size="12px" font-weight="bold" text-anchor="middle" x="353.0201342281879" y="128">P</text><line stroke="rgb(21,192,21)" stroke-width="1.5" x1="361.0738255033557" x2="361.0738255033557" y1="143" y2="108" /><text fill="rgb(21,192,21)" font-size="8px" text-anchor="middle" x="361.0738255033557" y="93">40</text><text fill="rgb(21,192,21)" font-size="12px" font-weight="bold" text-anchor="middle" x="361.0738255033557" y="103">T</text><line stroke="rgb(100,150,255)" stroke-width="1.5" x1="377.18120805369125" x2="377.18120805369125" y1="143" y2="83" /><text fill="rgb(100,150,255)" font-size="8px" text-anchor="middle" x="377.18120805369125" y="68">44</text><text fill="rgb(100,150,255)" font-size="12px" font-weight="bold" text-anchor="middle" x="377.18120805369125" y="78">F</text><line stroke="rgb(21,164,164)" stroke-width="1.5" x1="437.58389261744964" x2="437.58389261744964" y1="143" y2="133" /><text fill="rgb(21,164,164)" font-size="8px" text-anchor="middle" x="437.58389261744964" y="118">59</text><text fill="rgb(21,164,164)" font-size="12px" font-weight="bold" text-anchor="middle" x="437.58389261744964" y="128">H</text><line stroke="rgb(230,130,0)" stroke-width="1.5" x1="441.61073825503354" x2="441.61073825503354" y1="143" y2="108" /><text fill="rgb(230,130,0)" font-size="8px" text-anchor="middle" x="441.61073825503354" y="93">60</text><text fill="rgb(230,130,0)" font-size="12px" font-weight="bold" text-anchor="middle" x="441.61073825503354" y="103">G</text><line stroke="rgb(100,150,255)" stroke-width="1.5" x1="538.255033557047" x2="538.255033557047" y1="143" y2="133" /><text fill="rgb(100,150,255)" font-size="8px" text-anchor="middle" x="538.255033557047" y="118">84</text><text fill="rgb(100,150,255)" font-size="12px" font-weight="bold" text-anchor="middle" x="538.255033557047" y="128">L</text><line stroke="rgb(21,192,21)" stroke-width="1.5" x1="542.2818791946308" x2="542.2818791946308" y1="143" y2="108" /><text fill="rgb(21,192,21)" font-size="8px" text-anchor="middle" x="542.2818791946308" y="93">85</text><text fill="rgb(21,192,21)" font-size="12px" font-weight="bold" text-anchor="middle" x="542.2818791946308" y="103">S</text><line stroke="rgb(21,164,164)" stroke-width="1.5" x1="554.3624161073825" x2="554.3624161073825" y1="143" y2="83" /><text fill="rgb(21,164,164)" font-size="8px" text-anchor="middle" x="554.3624161073825" y="68">88</text><text fill="rgb(21,164,164)" font-size="12px" font-weight="bold" text-anchor="middle" x="554.3624161073825" y="78">H</text><line stroke="rgb(100,150,255)" stroke-width="1.5" x1="570.469798657718" x2="570.469798657718" y1="143" y2="133" /><text fill="rgb(100,150,255)" font-size="8px" text-anchor="middle" x="570.469798657718" y="118">92</text><text fill="rgb(100,150,255)" font-size="12px" font-weight="bold" text-anchor="middle" x="570.469798657718" y="128">L</text><line stroke="rgb(100,150,255)" stroke-width="1.5" x1="578.5234899328859" x2="578.5234899328859" y1="143" y2="108" /><text fill="rgb(100,150,255)" font-size="8px" text-anchor="middle" x="578.5234899328859" y="93">94</text><text fill="rgb(100,150,255)" font-size="12px" font-weight="bold" text-anchor="middle" x="578.5234899328859" y="103">V</text><line stroke="rgb(204,0,204)" stroke-width="1.5" x1="582.5503355704698" x2="582.5503355704698" y1="143" y2="83" /><text fill="rgb(204,0,204)" font-size="8px" text-anchor="middle" x="582.5503355704698" y="68">95</text><text fill="rgb(204,0,204)" font-size="12px" font-weight="bold" text-anchor="middle" x="582.5503355704698" y="78">D</text><line stroke="rgb(100,150,255)" stroke-width="1.5" x1="586.5771812080536" x2="586.5771812080536" y1="143" y2="58" /><text fill="rgb(100,150,255)" font-size="8px" text-anchor="middle" x="586.5771812080536" y="43">96</text><text fill="rgb(100,150,255)" font-size="12px" font-weight="bold" text-anchor="middle" x="586.5771812080536" y="53">P</text><line stroke="rgb(21,192,21)" stroke-width="1.5" x1="594.6308724832214" x2="594.6308724832214" y1="143" y2="33" /><text fill="rgb(21,192,21)" font-size="8px" text-anchor="middle" x="594.6308724832214" y="18">98</text><text fill="rgb(21,192,21)" font-size="12px" font-weight="bold" text-anchor="middle" x="594.6308724832214" y="28">N</text><line stroke="rgb(100,150,255)" stroke-width="1.5" x1="598.6577181208054" x2="598.6577181208054" y1="143" y2="133" /><text fill="rgb(100,150,255)" font-size="8px" text-anchor="middle" x="598.6577181208054" y="118">99</text><text fill="rgb(100,150,255)" font-size="12px" font-weight="bold" text-anchor="middle" x="598.6577181208054" y="128">F</text><line stroke="rgb(100,150,255)" stroke-width="1.5" x1="610.7382550335569" x2="610.7382550335569" y1="143" y2="108" /><text fill="rgb(100,150,255)" font-size="8px" text-anchor="middle" x="610.7382550335569" y="93">102</text><text fill="rgb(100,150,255)" font-size="12px" font-weight="bold" text-anchor="middle" x="610.7382550335569" y="103">L</text><line stroke="rgb(230,10,10)" stroke-width="1.5" x1="715.4362416107382" x2="715.4362416107382" y1="143" y2="133" /><text fill="rgb(230,10,10)" font-size="8px" text-anchor="middle" x="715.4362416107382" y="118">128</text><text fill="rgb(230,10,10)" font-size="12px" font-weight="bold" text-anchor="middle" x="715.4362416107382" y="128">K</text><line stroke="rgb(100,150,255)" stroke-width="1.5" x1="751.6778523489933" x2="751.6778523489933" y1="143" y2="133" /><text fill="rgb(100,150,255)" font-size="8px" text-anchor="middle" x="751.6778523489933" y="118">137</text><text fill="rgb(100,150,255)" font-size="12px" font-weight="bold" text-anchor="middle" x="751.6778523489933" y="128">L</text><line stroke="rgb(21,164,164)" stroke-width="1.5" x1="767.7852348993288" x2="767.7852348993288" y1="143" y2="108" /><text fill="rgb(21,164,164)" font-size="8px" text-anchor="middle" x="767.7852348993288" y="93">141</text><text fill="rgb(21,164,164)" font-size="12px" font-weight="bold" text-anchor="middle" x="767.7852348993288" y="103">Y</text><line stroke="rgb(180,180,180)" stroke-dasharray="3,3" stroke-width="1.5" x1="202.01342281879195" x2="206.04026845637583" y1="154.0" y2="154.0" /><line stroke="rgb(180,180,180)" stroke-width="1.5" x1="206.04026845637583" x2="218.1208053691275" y1="154.0" y2="154.0" /><path d="M 218.1,152.5 L 219.1,154.2 L 220.1,155.6 L 221.1,156.4 L 222.1,156.4 L 223.2,155.8 L 224.2,154.5 L 225.2,152.8 L 226.2,151.1 L 227.2,149.7 L 228.2,148.7 L 229.2,148.5 L 230.2,149.0 L 231.2,150.2 L 232.2,151.8 L 233.2,153.5 L 234.2,155.1 L 235.2,156.1 L 236.2,156.5 L 237.2,156.1 L 238.3,155.1 L 239.3,153.5 L 240.3,151.8 L 241.3,150.2 L 242.3,149.0 L 243.3,148.5 L 244.3,148.7 L 245.3,149.7 L 246.3,151.1 L 247.3,152.8 L 248.3,154.5 L 249.3,155.8 L 250.3,156.4 L 251.3,156.4 L 252.3,155.6 L 253.4,154.2 L 254.4,152.5 L 255.4,150.8 L 256.4,149.4 L 257.4,148.6 L 258.4,148.6 L 259.4,149.2 L 260.4,150.5 L 261.4,152.2 L 262.4,153.9 L 263.4,155.3 L 264.4,156.3 L 265.4,156.5 L 266.4,156.0 L 267.4,154.8 L 268.5,153.2 L 269.5,151.5 L 270.5,149.9 L 271.5,148.9 L 272.5,148.5 L 273.5,148.9 L 274.5,149.9 L 275.5,151.5 L 276.5,153.2 L 277.5,154.8 L 278.5,156.0 L 279.5,156.5 L 280.5,156.3 L 281.5,155.3 L 282.6,153.9 L 283.6,152.2 L 284.6,150.5 L 285.6,149.2 L 286.6,148.6 L 287.6,148.6 L 288.6,149.4 L 289.6,150.8 L 290.6,152.5 L 291.6,154.2 L 292.6,155.6 L 293.6,156.4 L 294.6,156.4 L 295.6,155.8 L 296.6,154.5 L 297.7,152.8 L 298.7,151.1 L 299.7,149.7 L 300.7,148.7 L 301.7,148.5 L 302.7,149.0 L 303.7,150.2 L 304.7,151.8 L 305.7,153.5 L 306.7,155.1 L 307.7,156.1 L 308.7,156.5 L 309.7,156.1 L 310.7,155.1 L 311.7,153.5 L 312.8,151.8 L 313.8,150.2 L 314.8,149.0 L 315.8,148.5 L 316.8,148.7 L 317.8,149.7 L 318.8,151.1 L 319.8,152.8 L 320.8,154.5 L 321.8,155.8 L 322.8,156.4 L 323.8,156.4 L 324.8,155.6 L 325.8,154.2 L 326.8,152.5 L 327.9,150.8 L 328.9,149.4 L 329.9,148.6 L 330.9,148.6 L 331.9,149.2 L 332.9,150.5 L 333.9,152.2 L 334.9,153.9 L 335.9,155.3 L 336.9,156.3 L 337.9,156.5 L 338.9,156.0 L 339.9,154.8 L 340.9,153.2 L 341.9,151.5 L 343.0,149.9 L 344.0,148.9 L 345.0,148.5 L 346.0,148.9 L 347.0,149.9 L 347.0,152.9 L 346.0,151.9 L 345.0,151.5 L 344.0,151.9 L 343.0,152.9 L 341.9,154.5 L 340.9,156.2 L 339.9,157.8 L 338.9,159.0 L 337.9,159.5 L 336.9,159.3 L 335.9,158.3 L 334.9,156.9 L 333.9,155.2 L 332.9,153.5 L 331.9,152.2 L 330.9,151.6 L 329.9,151.6 L 328.9,152.4 L 327.9,153.8 L 326.8,155.5 L 325.8,157.2 L 324.8,158.6 L 323.8,159.4 L 322.8,159.4 L 321.8,158.8 L 320.8,157.5 L 319.8,155.8 L 318.8,154.1 L 317.8,152.7 L 316.8,151.7 L 315.8,151.5 L 314.8,152.0 L 313.8,153.2 L 312.8,154.8 L 311.7,156.5 L 310.7,158.1 L 309.7,159.1 L 308.7,159.5 L 307.7,159.1 L 306.7,158.1 L 305.7,156.5 L 304.7,154.8 L 303.7,153.2 L 302.7,152.0 L 301.7,151.5 L 300.7,151.7 L 299.7,152.7 L 298.7,154.1 L 297.7,155.8 L 296.6,157.5 L 295.6,158.8 L 294.6,159.4 L 293.6,159.4 L 292.6,158.6 L 291.6,157.2 L 290.6,155.5 L 289.6,153.8 L 288.6,152.4 L 287.6,151.6 L 286.6,151.6 L 285.6,152.2 L 284.6,153.5 L 283.6,155.2 L 282.6,156.9 L 281.5,158.3 L 280.5,159.3 L 279.5,159.5 L 278.5,159.0 L 277.5,157.8 L 276.5,156.2 L 275.5,154.5 L 274.5,152.9 L 273.5,151.9 L 272.5,151.5 L 271.5,151.9 L 270.5,152.9 L 269.5,154.5 L 268.5,156.2 L 267.4,157.8 L 266.4,159.0 L 265.4,159.5 L 264.4,159.3 L 263.4,158.3 L 262.4,156.9 L 261.4,155.2 L 260.4,153.5 L 259.4,152.2 L 258.4,151.6 L 257.4,151.6 L 256.4,152.4 L 255.4,153.8 L 254.4,155.5 L 253.4,157.2 L 252.3,158.6 L 251.3,159.4 L 250.3,159.4 L 249.3,158.8 L 248.3,157.5 L 247.3,155.8 L 246.3,154.1 L 245.3,152.7 L 244.3,151.7 L 243.3,151.5 L 242.3,152.0 L 241.3,153.2 L 240.3,154.8 L 239.3,156.5 L 238.3,158.1 L 237.2,159.1 L 236.2,159.5 L 235.2,159.1 L 234.2,158.1 L 233.2,156.5 L 232.2,154.8 L 231.2,153.2 L 230.2,152.0 L 229.2,151.5 L 228.2,151.7 L 227.2,152.7 L 226.2,154.1 L 225.2,155.8 L 224.2,157.5 L 223.2,158.8 L 222.1,159.4 L 221.1,159.4 L 220.1,158.6 L 219.1,157.2 L 218.1,155.5 Z" fill="rgb(230,90,90)" stroke="rgb(180,60,60)" stroke-width="0.5" /><line stroke="rgb(180,180,180)" stroke-width="1.5" x1="346.97986577181206" x2="351.00671140939596" y1="154.0" y2="154.0" /><path d="M 351.0,152.5 L 352.0,154.2 L 353.0,155.6 L 354.0,156.4 L 355.0,156.4 L 356.0,155.8 L 357.0,154.5 L 358.1,152.8 L 359.1,151.1 L 360.1,149.7 L 361.1,148.7 L 362.1,148.5 L 363.1,149.0 L 364.1,150.2 L 365.1,151.8 L 366.1,153.5 L 367.1,155.1 L 368.1,156.1 L 369.1,156.5 L 370.1,156.1 L 371.1,155.1 L 372.1,153.5 L 373.2,151.8 L 374.2,150.2 L 375.2,149.0 L 375.2,152.0 L 374.2,153.2 L 373.2,154.8 L 372.1,156.5 L 371.1,158.1 L 370.1,159.1 L 369.1,159.5 L 368.1,159.1 L 367.1,158.1 L 366.1,156.5 L 365.1,154.8 L 364.1,153.2 L 363.1,152.0 L 362.1,151.5 L 361.1,151.7 L 360.1,152.7 L 359.1,154.1 L 358.1,155.8 L 357.0,157.5 L 356.0,158.8 L 355.0,159.4 L 354.0,159.4 L 353.0,158.6 L 352.0,157.2 L 351.0,155.5 Z" fill="rgb(230,90,90)" stroke="rgb(180,60,60)" stroke-width="0.5" /><line stroke="rgb(180,180,180)" stroke-width="1.5" x1="375.16778523489927" x2="415.4362416107382" y1="154.0" y2="154.0" /><path d="M 415.4,152.5 L 416.4,154.2 L 417.4,155.6 L 418.5,156.4 L 419.5,156.4 L 420.5,155.8 L 421.5,154.5 L 422.5,152.8 L 423.5,151.1 L 424.5,149.7 L 425.5,148.7 L 426.5,148.5 L 427.5,149.0 L 428.5,150.2 L 429.5,151.8 L 430.5,153.5 L 431.5,155.1 L 432.6,156.1 L 433.6,156.5 L 434.6,156.1 L 435.6,155.1 L 436.6,153.5 L 437.6,151.8 L 438.6,150.2 L 439.6,149.0 L 440.6,148.5 L 441.6,148.7 L 442.6,149.7 L 443.6,151.1 L 444.6,152.8 L 445.6,154.5 L 446.6,155.8 L 447.7,156.4 L 448.7,156.4 L 449.7,155.6 L 450.7,154.2 L 451.7,152.5 L 452.7,150.8 L 453.7,149.4 L 454.7,148.6 L 455.7,148.6 L 456.7,149.2 L 457.7,150.5 L 458.7,152.2 L 459.7,153.9 L 460.7,155.3 L 461.7,156.3 L 462.8,156.5 L 463.8,156.0 L 464.8,154.8 L 465.8,153.2 L 466.8,151.5 L 467.8,149.9 L 468.8,148.9 L 469.8,148.5 L 470.8,148.9 L 471.8,149.9 L 472.8,151.5 L 473.8,153.2 L 474.8,154.8 L 475.8,156.0 L 476.8,156.5 L 477.9,156.3 L 478.9,155.3 L 479.9,153.9 L 480.9,152.2 L 481.9,150.5 L 482.9,149.2 L 483.9,148.6 L 484.9,148.6 L 485.9,149.4 L 486.9,150.8 L 487.9,152.5 L 488.9,154.2 L 489.9,155.6 L 490.9,156.4 L 491.9,156.4 L 491.9,159.4 L 490.9,159.4 L 489.9,158.6 L 488.9,157.2 L 487.9,155.5 L 486.9,153.8 L 485.9,152.4 L 484.9,151.6 L 483.9,151.6 L 482.9,152.2 L 481.9,153.5 L 480.9,155.2 L 479.9,156.9 L 478.9,158.3 L 477.9,159.3 L 476.8,159.5 L 475.8,159.0 L 474.8,157.8 L 473.8,156.2 L 472.8,154.5 L 471.8,152.9 L 470.8,151.9 L 469.8,151.5 L 468.8,151.9 L 467.8,152.9 L 466.8,154.5 L 465.8,156.2 L 464.8,157.8 L 463.8,159.0 L 462.8,159.5 L 461.7,159.3 L 460.7,158.3 L 459.7,156.9 L 458.7,155.2 L 457.7,153.5 L 456.7,152.2 L 455.7,151.6 L 454.7,151.6 L 453.7,152.4 L 452.7,153.8 L 451.7,155.5 L 450.7,157.2 L 449.7,158.6 L 448.7,159.4 L 447.7,159.4 L 446.6,158.8 L 445.6,157.5 L 444.6,155.8 L 443.6,154.1 L 442.6,152.7 L 441.6,151.7 L 440.6,151.5 L 439.6,152.0 L 438.6,153.2 L 437.6,154.8 L 436.6,156.5 L 435.6,158.1 L 434.6,159.1 L 433.6,159.5 L 432.6,159.1 L 431.5,158.1 L 430.5,156.5 L 429.5,154.8 L 428.5,153.2 L 427.5,152.0 L 426.5,151.5 L 425.5,151.7 L 424.5,152.7 L 423.5,154.1 L 422.5,155.8 L 421.5,157.5 L 420.5,158.8 L 419.5,159.4 L 418.5,159.4 L 417.4,158.6 L 416.4,157.2 L 415.4,155.5 Z" fill="rgb(230,90,90)" stroke="rgb(180,60,60)" stroke-width="0.5" /><line stroke="rgb(180,180,180)" stroke-width="1.5" x1="491.9463087248322" x2="508.05369127516775" y1="154.0" y2="154.0" /><path d="M 508.1,152.5 L 508.9,153.9 L 509.7,155.1 L 510.5,156.0 L 511.3,156.4 L 512.1,156.4 L 512.9,156.0 L 513.7,155.1 L 514.5,153.9 L 515.3,152.5 L 516.1,151.1 L 516.9,149.9 L 517.7,149.0 L 518.5,148.6 L 519.3,148.6 L 520.1,149.0 L 520.9,149.9 L 521.7,151.1 L 522.6,152.5 L 523.4,153.9 L 524.2,155.1 L 524.2,158.1 L 523.4,156.9 L 522.6,155.5 L 521.7,154.1 L 520.9,152.9 L 520.1,152.0 L 519.3,151.6 L 518.5,151.6 L 517.7,152.0 L 516.9,152.9 L 516.1,154.1 L 515.3,155.5 L 514.5,156.9 L 513.7,158.1 L 512.9,159.0 L 512.1,159.4 L 511.3,159.4 L 510.5,159.0 L 509.7,158.1 L 508.9,156.9 L 508.1,155.5 Z" fill="rgb(230,90,90)" stroke="rgb(180,60,60)" stroke-width="0.5" /><line stroke="rgb(180,180,180)" stroke-width="1.5" x1="524.1610738255033" x2="528.1879194630872" y1="154.0" y2="154.0" /><path d="M 528.2,152.5 L 529.2,154.2 L 530.2,155.6 L 531.2,156.4 L 532.2,156.4 L 533.2,155.8 L 534.2,154.5 L 535.2,152.8 L 536.2,151.1 L 537.2,149.7 L 538.3,148.7 L 539.3,148.5 L 540.3,149.0 L 541.3,150.2 L 542.3,151.8 L 543.3,153.5 L 544.3,155.1 L 545.3,156.1 L 546.3,156.5 L 547.3,156.1 L 548.3,155.1 L 549.3,153.5 L 550.3,151.8 L 551.3,150.2 L 552.3,149.0 L 553.4,148.5 L 554.4,148.7 L 555.4,149.7 L 556.4,151.1 L 557.4,152.8 L 558.4,154.5 L 559.4,155.8 L 560.4,156.4 L 561.4,156.4 L 562.4,155.6 L 563.4,154.2 L 564.4,152.5 L 565.4,150.8 L 566.4,149.4 L 567.4,148.6 L 568.5,148.6 L 569.5,149.2 L 570.5,150.5 L 571.5,152.2 L 572.5,153.9 L 572.5,156.9 L 571.5,155.2 L 570.5,153.5 L 569.5,152.2 L 568.5,151.6 L 567.4,151.6 L 566.4,152.4 L 565.4,153.8 L 564.4,155.5 L 563.4,157.2 L 562.4,158.6 L 561.4,159.4 L 560.4,159.4 L 559.4,158.8 L 558.4,157.5 L 557.4,155.8 L 556.4,154.1 L 555.4,152.7 L 554.4,151.7 L 553.4,151.5 L 552.3,152.0 L 551.3,153.2 L 550.3,154.8 L 549.3,156.5 L 548.3,158.1 L 547.3,159.1 L 546.3,159.5 L 545.3,159.1 L 544.3,158.1 L 543.3,156.5 L 542.3,154.8 L 541.3,153.2 L 540.3,152.0 L 539.3,151.5 L 538.3,151.7 L 537.2,152.7 L 536.2,154.1 L 535.2,155.8 L 534.2,157.5 L 533.2,158.8 L 532.2,159.4 L 531.2,159.4 L 530.2,158.6 L 529.2,157.2 L 528.2,155.5 Z" fill="rgb(230,90,90)" stroke="rgb(180,60,60)" stroke-width="0.5" /><line stroke="rgb(180,180,180)" stroke-width="1.5" x1="572.48322147651" x2="588.5906040268455" y1="154.0" y2="154.0" /><path d="M 588.6,152.5 L 589.6,154.2 L 590.6,155.6 L 591.6,156.4 L 592.6,156.4 L 593.6,155.8 L 594.6,154.5 L 595.6,152.8 L 596.6,151.1 L 597.7,149.7 L 598.7,148.7 L 599.7,148.5 L 600.7,149.0 L 601.7,150.2 L 602.7,151.8 L 603.7,153.5 L 604.7,155.1 L 605.7,156.1 L 606.7,156.5 L 607.7,156.1 L 608.7,155.1 L 609.7,153.5 L 610.7,151.8 L 611.7,150.2 L 612.8,149.0 L 613.8,148.5 L 614.8,148.7 L 615.8,149.7 L 616.8,151.1 L 617.8,152.8 L 618.8,154.5 L 619.8,155.8 L 620.8,156.4 L 621.8,156.4 L 622.8,155.6 L 623.8,154.2 L 624.8,152.5 L 625.8,150.8 L 626.8,149.4 L 627.9,148.6 L 628.9,148.6 L 629.9,149.2 L 630.9,150.5 L 631.9,152.2 L 632.9,153.9 L 633.9,155.3 L 634.9,156.3 L 635.9,156.5 L 636.9,156.0 L 637.9,154.8 L 638.9,153.2 L 639.9,151.5 L 640.9,149.9 L 641.9,148.9 L 643.0,148.5 L 644.0,148.9 L 645.0,149.9 L 646.0,151.5 L 647.0,153.2 L 648.0,154.8 L 649.0,156.0 L 650.0,156.5 L 651.0,156.3 L 652.0,155.3 L 653.0,153.9 L 654.0,152.2 L 655.0,150.5 L 656.0,149.2 L 657.0,148.6 L 657.0,151.6 L 656.0,152.2 L 655.0,153.5 L 654.0,155.2 L 653.0,156.9 L 652.0,158.3 L 651.0,159.3 L 650.0,159.5 L 649.0,159.0 L 648.0,157.8 L 647.0,156.2 L 646.0,154.5 L 645.0,152.9 L 644.0,151.9 L 643.0,151.5 L 641.9,151.9 L 640.9,152.9 L 639.9,154.5 L 638.9,156.2 L 637.9,157.8 L 636.9,159.0 L 635.9,159.5 L 634.9,159.3 L 633.9,158.3 L 632.9,156.9 L 631.9,155.2 L 630.9,153.5 L 629.9,152.2 L 628.9,151.6 L 627.9,151.6 L 626.8,152.4 L 625.8,153.8 L 624.8,155.5 L 623.8,157.2 L 622.8,158.6 L 621.8,159.4 L 620.8,159.4 L 619.8,158.8 L 618.8,157.5 L 617.8,155.8 L 616.8,154.1 L 615.8,152.7 L 614.8,151.7 L 613.8,151.5 L 612.8,152.0 L 611.7,153.2 L 610.7,154.8 L 609.7,156.5 L 608.7,158.1 L 607.7,159.1 L 606.7,159.5 L 605.7,159.1 L 604.7,158.1 L 603.7,156.5 L 602.7,154.8 L 601.7,153.2 L 600.7,152.0 L 599.7,151.5 L 598.7,151.7 L 597.7,152.7 L 596.6,154.1 L 595.6,155.8 L 594.6,157.5 L 593.6,158.8 L 592.6,159.4 L 591.6,159.4 L 590.6,158.6 L 589.6,157.2 L 588.6,155.5 Z" fill="rgb(230,90,90)" stroke="rgb(180,60,60)" stroke-width="0.5" /><line stroke="rgb(180,180,180)" stroke-width="1.5" x1="657.0469798657717" x2="681.2080536912752" y1="154.0" y2="154.0" /><path d="M 681.2,152.5 L 682.2,154.2 L 683.2,155.6 L 684.2,156.4 L 685.2,156.4 L 686.2,155.8 L 687.2,154.5 L 688.3,152.8 L 689.3,151.1 L 690.3,149.7 L 691.3,148.7 L 692.3,148.5 L 693.3,149.0 L 694.3,150.2 L 695.3,151.8 L 696.3,153.5 L 697.3,155.1 L 698.3,156.1 L 699.3,156.5 L 700.3,156.1 L 701.3,155.1 L 702.3,153.5 L 703.4,151.8 L 704.4,150.2 L 705.4,149.0 L 706.4,148.5 L 707.4,148.7 L 708.4,149.7 L 709.4,151.1 L 710.4,152.8 L 711.4,154.5 L 712.4,155.8 L 713.4,156.4 L 714.4,156.4 L 715.4,155.6 L 716.4,154.2 L 717.4,152.5 L 718.5,150.8 L 719.5,149.4 L 720.5,148.6 L 721.5,148.6 L 722.5,149.2 L 723.5,150.5 L 724.5,152.2 L 725.5,153.9 L 726.5,155.3 L 727.5,156.3 L 728.5,156.5 L 729.5,156.0 L 730.5,154.8 L 731.5,153.2 L 732.6,151.5 L 733.6,149.9 L 734.6,148.9 L 735.6,148.5 L 736.6,148.9 L 737.6,149.9 L 738.6,151.5 L 739.6,153.2 L 740.6,154.8 L 741.6,156.0 L 742.6,156.5 L 743.6,156.3 L 744.6,155.3 L 745.6,153.9 L 746.6,152.2 L 747.7,150.5 L 748.7,149.2 L 749.7,148.6 L 750.7,148.6 L 751.7,149.4 L 752.7,150.8 L 753.7,152.5 L 754.7,154.2 L 755.7,155.6 L 756.7,156.4 L 757.7,156.4 L 757.7,159.4 L 756.7,159.4 L 755.7,158.6 L 754.7,157.2 L 753.7,155.5 L 752.7,153.8 L 751.7,152.4 L 750.7,151.6 L 749.7,151.6 L 748.7,152.2 L 747.7,153.5 L 746.6,155.2 L 745.6,156.9 L 744.6,158.3 L 743.6,159.3 L 742.6,159.5 L 741.6,159.0 L 740.6,157.8 L 739.6,156.2 L 738.6,154.5 L 737.6,152.9 L 736.6,151.9 L 735.6,151.5 L 734.6,151.9 L 733.6,152.9 L 732.6,154.5 L 731.5,156.2 L 730.5,157.8 L 729.5,159.0 L 728.5,159.5 L 727.5,159.3 L 726.5,158.3 L 725.5,156.9 L 724.5,155.2 L 723.5,153.5 L 722.5,152.2 L 721.5,151.6 L 720.5,151.6 L 719.5,152.4 L 718.5,153.8 L 717.4,155.5 L 716.4,157.2 L 715.4,158.6 L 714.4,159.4 L 713.4,159.4 L 712.4,158.8 L 711.4,157.5 L 710.4,155.8 L 709.4,154.1 L 708.4,152.7 L 707.4,151.7 L 706.4,151.5 L 705.4,152.0 L 704.4,153.2 L 703.4,154.8 L 702.3,156.5 L 701.3,158.1 L 700.3,159.1 L 699.3,159.5 L 698.3,159.1 L 697.3,158.1 L 696.3,156.5 L 695.3,154.8 L 694.3,153.2 L 693.3,152.0 L 692.3,151.5 L 691.3,151.7 L 690.3,152.7 L 689.3,154.1 L 688.3,155.8 L 687.2,157.5 L 686.2,158.8 L 685.2,159.4 L 684.2,159.4 L 683.2,158.6 L 682.2,157.2 L 681.2,155.5 Z" fill="rgb(230,90,90)" stroke="rgb(180,60,60)" stroke-width="0.5" /><line stroke="rgb(180,180,180)" stroke-width="1.5" x1="757.718120805369" x2="771.8120805369127" y1="154.0" y2="154.0" /><line stroke="gray" stroke-width="1" x1="200.0" x2="200.0" y1="162" y2="167" /><line stroke="gray" stroke-width="1" x1="401.3422818791946" x2="401.3422818791946" y1="162" y2="167" /><text fill="gray" font-size="10px" text-anchor="middle" x="401.3422818791946" y="180">50</text><line stroke="gray" stroke-width="1" x1="602.6845637583892" x2="602.6845637583892" y1="162" y2="167" /><text fill="gray" font-size="10px" text-anchor="middle" x="602.6845637583892" y="180">100</text><text fill="black" font-size="14px" text-anchor="end" x="190" y="323">Hemoglobin β</text><line stroke="black" stroke-width="2" x1="200" x2="791.9463087248322" y1="318" y2="318" /><line stroke="rgb(230,130,0)" stroke-width="1.5" x1="300.6711409395973" x2="300.6711409395973" y1="318" y2="308" /><text fill="rgb(230,130,0)" font-size="8px" text-anchor="middle" x="300.6711409395973" y="293">25</text><text fill="rgb(230,130,0)" font-size="12px" font-weight="bold" text-anchor="middle" x="300.6711409395973" y="303">G</text><line stroke="rgb(100,150,255)" stroke-width="1.5" x1="316.77852348993287" x2="316.77852348993287" y1="318" y2="283" /><text fill="rgb(100,150,255)" font-size="8px" text-anchor="middle" x="316.77852348993287" y="268">29</text><text fill="rgb(100,150,255)" font-size="12px" font-weight="bold" text-anchor="middle" x="316.77852348993287" y="278">L</text><line stroke="rgb(230,10,10)" stroke-width="1.5" x1="324.8322147651007" x2="324.8322147651007" y1="318" y2="258" /><text fill="rgb(230,10,10)" font-size="8px" text-anchor="middle" x="324.8322147651007" y="243">31</text><text fill="rgb(230,10,10)" font-size="12px" font-weight="bold" text-anchor="middle" x="324.8322147651007" y="253">R</text><line stroke="rgb(100,150,255)" stroke-width="1.5" x1="348.99328859060404" x2="348.99328859060404" y1="318" y2="308" /><text fill="rgb(100,150,255)" font-size="8px" text-anchor="middle" x="348.99328859060404" y="293">37</text><text fill="rgb(100,150,255)" font-size="12px" font-weight="bold" text-anchor="middle" x="348.99328859060404" y="303">P</text><line stroke="rgb(21,192,21)" stroke-width="1.5" x1="357.0469798657718" x2="357.0469798657718" y1="318" y2="283" /><text fill="rgb(21,192,21)" font-size="8px" text-anchor="middle" x="357.0469798657718" y="268">39</text><text fill="rgb(21,192,21)" font-size="12px" font-weight="bold" text-anchor="middle" x="357.0469798657718" y="278">T</text><line stroke="rgb(100,150,255)" stroke-width="1.5" x1="373.15436241610735" x2="373.15436241610735" y1="318" y2="258" /><text fill="rgb(100,150,255)" font-size="8px" text-anchor="middle" x="373.15436241610735" y="243">43</text><text fill="rgb(100,150,255)" font-size="12px" font-weight="bold" text-anchor="middle" x="373.15436241610735" y="253">F</text><line stroke="rgb(21,164,164)" stroke-width="1.5" x1="457.7181208053691" x2="457.7181208053691" y1="318" y2="308" /><text fill="rgb(21,164,164)" font-size="8px" text-anchor="middle" x="457.7181208053691" y="293">64</text><text fill="rgb(21,164,164)" font-size="12px" font-weight="bold" text-anchor="middle" x="457.7181208053691" y="303">H</text><line stroke="rgb(230,130,0)" stroke-width="1.5" x1="461.744966442953" x2="461.744966442953" y1="318" y2="283" /><text fill="rgb(230,130,0)" font-size="8px" text-anchor="middle" x="461.744966442953" y="268">65</text><text fill="rgb(230,130,0)" font-size="12px" font-weight="bold" text-anchor="middle" x="461.744966442953" y="278">G</text><line stroke="rgb(100,150,255)" stroke-width="1.5" x1="558.3892617449665" x2="558.3892617449665" y1="318" y2="308" /><text fill="rgb(100,150,255)" font-size="8px" text-anchor="middle" x="558.3892617449665" y="293">89</text><text fill="rgb(100,150,255)" font-size="12px" font-weight="bold" text-anchor="middle" x="558.3892617449665" y="303">L</text><line stroke="rgb(21,192,21)" stroke-width="1.5" x1="562.4161073825503" x2="562.4161073825503" y1="318" y2="283" /><text fill="rgb(21,192,21)" font-size="8px" text-anchor="middle" x="562.4161073825503" y="268">90</text><text fill="rgb(21,192,21)" font-size="12px" font-weight="bold" text-anchor="middle" x="562.4161073825503" y="278">S</text><line stroke="rgb(21,164,164)" stroke-width="1.5" x1="574.496644295302" x2="574.496644295302" y1="318" y2="258" /><text fill="rgb(21,164,164)" font-size="8px" text-anchor="middle" x="574.496644295302" y="243">93</text><text fill="rgb(21,164,164)" font-size="12px" font-weight="bold" text-anchor="middle" x="574.496644295302" y="253">H</text><line stroke="rgb(100,150,255)" stroke-width="1.5" x1="590.6040268456375" x2="590.6040268456375" y1="318" y2="308" /><text fill="rgb(100,150,255)" font-size="8px" text-anchor="middle" x="590.6040268456375" y="293">97</text><text fill="rgb(100,150,255)" font-size="12px" font-weight="bold" text-anchor="middle" x="590.6040268456375" y="303">L</text><line stroke="rgb(100,150,255)" stroke-width="1.5" x1="598.6577181208054" x2="598.6577181208054" y1="318" y2="283" /><text fill="rgb(100,150,255)" font-size="8px" text-anchor="middle" x="598.6577181208054" y="268">99</text><text fill="rgb(100,150,255)" font-size="12px" font-weight="bold" text-anchor="middle" x="598.6577181208054" y="278">V</text><line stroke="rgb(204,0,204)" stroke-width="1.5" x1="602.6845637583892" x2="602.6845637583892" y1="318" y2="258" /><text fill="rgb(204,0,204)" font-size="8px" text-anchor="middle" x="602.6845637583892" y="243">100</text><text fill="rgb(204,0,204)" font-size="12px" font-weight="bold" text-anchor="middle" x="602.6845637583892" y="253">D</text><line stroke="rgb(100,150,255)" stroke-width="1.5" x1="606.7114093959731" x2="606.7114093959731" y1="318" y2="233" /><text fill="rgb(100,150,255)" font-size="8px" text-anchor="middle" x="606.7114093959731" y="218">101</text><text fill="rgb(100,150,255)" font-size="12px" font-weight="bold" text-anchor="middle" x="606.7114093959731" y="228">P</text><line stroke="rgb(21,192,21)" stroke-width="1.5" x1="614.7651006711409" x2="614.7651006711409" y1="318" y2="208" /><text fill="rgb(21,192,21)" font-size="8px" text-anchor="middle" x="614.7651006711409" y="193">103</text><text fill="rgb(21,192,21)" font-size="12px" font-weight="bold" text-anchor="middle" x="614.7651006711409" y="203">N</text><line stroke="rgb(100,150,255)" stroke-width="1.5" x1="618.7919463087248" x2="618.7919463087248" y1="318" y2="308" /><text fill="rgb(100,150,255)" font-size="8px" text-anchor="middle" x="618.7919463087248" y="293">104</text><text fill="rgb(100,150,255)" font-size="12px" font-weight="bold" text-anchor="middle" x="618.7919463087248" y="303">F</text><line stroke="rgb(100,150,255)" stroke-width="1.5" x1="630.8724832214764" x2="630.8724832214764" y1="318" y2="283" /><text fill="rgb(100,150,255)" font-size="8px" text-anchor="middle" x="630.8724832214764" y="268">107</text><text fill="rgb(100,150,255)" font-size="12px" font-weight="bold" text-anchor="middle" x="630.8724832214764" y="278">L</text><line stroke="rgb(230,10,10)" stroke-width="1.5" x1="735.5704697986577" x2="735.5704697986577" y1="318" y2="308" /><text fill="rgb(230,10,10)" font-size="8px" text-anchor="middle" x="735.5704697986577" y="293">133</text><text fill="rgb(230,10,10)" font-size="12px" font-weight="bold" text-anchor="middle" x="735.5704697986577" y="303">K</text><line stroke="rgb(100,150,255)" stroke-width="1.5" x1="771.8120805369127" x2="771.8120805369127" y1="318" y2="308" /><text fill="rgb(100,150,255)" font-size="8px" text-anchor="middle" x="771.8120805369127" y="293">142</text><text fill="rgb(100,150,255)" font-size="12px" font-weight="bold" text-anchor="middle" x="771.8120805369127" y="303">L</text><line stroke="rgb(21,164,164)" stroke-width="1.5" x1="787.9194630872482" x2="787.9194630872482" y1="318" y2="283" /><text fill="rgb(21,164,164)" font-size="8px" text-anchor="middle" x="787.9194630872482" y="268">146</text><text fill="rgb(21,164,164)" font-size="12px" font-weight="bold" text-anchor="middle" x="787.9194630872482" y="278">Y</text><line stroke="rgb(180,180,180)" stroke-dasharray="3,3" stroke-width="1.5" x1="202.01342281879195" x2="210.06711409395973" y1="329.0" y2="329.0" /><line stroke="rgb(180,180,180)" stroke-width="1.5" x1="210.06711409395973" x2="222.1476510067114" y1="329.0" y2="329.0" /><path d="M 222.1,327.5 L 223.2,329.2 L 224.2,330.6 L 225.2,331.4 L 226.2,331.4 L 227.2,330.8 L 228.2,329.5 L 229.2,327.8 L 230.2,326.1 L 231.2,324.7 L 232.2,323.7 L 233.2,323.5 L 234.2,324.0 L 235.2,325.2 L 236.2,326.8 L 237.2,328.5 L 238.3,330.1 L 239.3,331.1 L 240.3,331.5 L 241.3,331.1 L 242.3,330.1 L 243.3,328.5 L 244.3,326.8 L 245.3,325.2 L 246.3,324.0 L 247.3,323.5 L 248.3,323.7 L 249.3,324.7 L 250.3,326.1 L 251.3,327.8 L 252.3,329.5 L 253.4,330.8 L 254.4,331.4 L 255.4,331.4 L 256.4,330.6 L 257.4,329.2 L 258.4,327.5 L 259.4,325.8 L 260.4,324.4 L 261.4,323.6 L 262.4,323.6 L 263.4,324.2 L 264.4,325.5 L 265.4,327.2 L 266.4,328.9 L 266.4,331.9 L 265.4,330.2 L 264.4,328.5 L 263.4,327.2 L 262.4,326.6 L 261.4,326.6 L 260.4,327.4 L 259.4,328.8 L 258.4,330.5 L 257.4,332.2 L 256.4,333.6 L 255.4,334.4 L 254.4,334.4 L 253.4,333.8 L 252.3,332.5 L 251.3,330.8 L 250.3,329.1 L 249.3,327.7 L 248.3,326.7 L 247.3,326.5 L 246.3,327.0 L 245.3,328.2 L 244.3,329.8 L 243.3,331.5 L 242.3,333.1 L 241.3,334.1 L 240.3,334.5 L 239.3,334.1 L 238.3,333.1 L 237.2,331.5 L 236.2,329.8 L 235.2,328.2 L 234.2,327.0 L 233.2,326.5 L 232.2,326.7 L 231.2,327.7 L 230.2,329.1 L 229.2,330.8 L 228.2,332.5 L 227.2,333.8 L 226.2,334.4 L 225.2,334.4 L 224.2,333.6 L 223.2,332.2 L 222.1,330.5 Z" fill="rgb(230,90,90)" stroke="rgb(180,60,60)" stroke-width="0.5" /><line stroke="rgb(180,180,180)" stroke-width="1.5" x1="266.4429530201342" x2="282.55033557046977" y1="329.0" y2="329.0" /><path d="M 282.6,327.5 L 283.6,329.2 L 284.6,330.6 L 285.6,331.4 L 286.6,331.4 L 287.6,330.8 L 288.6,329.5 L 289.6,327.8 L 290.6,326.1 L 291.6,324.7 L 292.6,323.7 L 293.6,323.5 L 294.6,324.0 L 295.6,325.2 L 296.6,326.8 L 297.7,328.5 L 298.7,330.1 L 299.7,331.1 L 300.7,331.5 L 301.7,331.1 L 302.7,330.1 L 303.7,328.5 L 304.7,326.8 L 305.7,325.2 L 306.7,324.0 L 307.7,323.5 L 308.7,323.7 L 309.7,324.7 L 310.7,326.1 L 311.7,327.8 L 312.8,329.5 L 313.8,330.8 L 314.8,331.4 L 315.8,331.4 L 316.8,330.6 L 317.8,329.2 L 318.8,327.5 L 319.8,325.8 L 320.8,324.4 L 321.8,323.6 L 322.8,323.6 L 323.8,324.2 L 324.8,325.5 L 325.8,327.2 L 326.8,328.9 L 327.9,330.3 L 328.9,331.3 L 329.9,331.5 L 330.9,331.0 L 331.9,329.8 L 332.9,328.2 L 333.9,326.5 L 334.9,324.9 L 335.9,323.9 L 336.9,323.5 L 337.9,323.9 L 338.9,324.9 L 339.9,326.5 L 340.9,328.2 L 341.9,329.8 L 343.0,331.0 L 343.0,334.0 L 341.9,332.8 L 340.9,331.2 L 339.9,329.5 L 338.9,327.9 L 337.9,326.9 L 336.9,326.5 L 335.9,326.9 L 334.9,327.9 L 333.9,329.5 L 332.9,331.2 L 331.9,332.8 L 330.9,334.0 L 329.9,334.5 L 328.9,334.3 L 327.9,333.3 L 326.8,331.9 L 325.8,330.2 L 324.8,328.5 L 323.8,327.2 L 322.8,326.6 L 321.8,326.6 L 320.8,327.4 L 319.8,328.8 L 318.8,330.5 L 317.8,332.2 L 316.8,333.6 L 315.8,334.4 L 314.8,334.4 L 313.8,333.8 L 312.8,332.5 L 311.7,330.8 L 310.7,329.1 L 309.7,327.7 L 308.7,326.7 L 307.7,326.5 L 306.7,327.0 L 305.7,328.2 L 304.7,329.8 L 303.7,331.5 L 302.7,333.1 L 301.7,334.1 L 300.7,334.5 L 299.7,334.1 L 298.7,333.1 L 297.7,331.5 L 296.6,329.8 L 295.6,328.2 L 294.6,327.0 L 293.6,326.5 L 292.6,326.7 L 291.6,327.7 L 290.6,329.1 L 289.6,330.8 L 288.6,332.5 L 287.6,333.8 L 286.6,334.4 L 285.6,334.4 L 284.6,333.6 L 283.6,332.2 L 282.6,330.5 Z" fill="rgb(230,90,90)" stroke="rgb(180,60,60)" stroke-width="0.5" /><line stroke="rgb(180,180,180)" stroke-width="1.5" x1="342.95302013422815" x2="346.97986577181206" y1="329.0" y2="329.0" /><path d="M 347.0,327.5 L 348.0,329.2 L 349.0,330.6 L 350.0,331.4 L 351.0,331.4 L 352.0,330.8 L 353.0,329.5 L 354.0,327.8 L 355.0,326.1 L 356.0,324.7 L 357.0,323.7 L 358.1,323.5 L 359.1,324.0 L 360.1,325.2 L 361.1,326.8 L 362.1,328.5 L 363.1,330.1 L 364.1,331.1 L 365.1,331.5 L 366.1,331.1 L 367.1,330.1 L 368.1,328.5 L 369.1,326.8 L 370.1,325.2 L 371.1,324.0 L 371.1,327.0 L 370.1,328.2 L 369.1,329.8 L 368.1,331.5 L 367.1,333.1 L 366.1,334.1 L 365.1,334.5 L 364.1,334.1 L 363.1,333.1 L 362.1,331.5 L 361.1,329.8 L 360.1,328.2 L 359.1,327.0 L 358.1,326.5 L 357.0,326.7 L 356.0,327.7 L 355.0,329.1 L 354.0,330.8 L 353.0,332.5 L 352.0,333.8 L 351.0,334.4 L 350.0,334.4 L 349.0,333.6 L 348.0,332.2 L 347.0,330.5 Z" fill="rgb(230,90,90)" stroke="rgb(180,60,60)" stroke-width="0.5" /><line stroke="rgb(180,180,180)" stroke-width="1.5" x1="371.1409395973154" x2="407.38255033557044" y1="329.0" y2="329.0" /><path d="M 407.4,327.5 L 408.4,329.2 L 409.4,330.6 L 410.4,331.4 L 411.4,331.4 L 412.4,330.8 L 413.4,329.5 L 414.4,327.8 L 415.4,326.1 L 416.4,324.7 L 417.4,323.7 L 418.5,323.5 L 419.5,324.0 L 420.5,325.2 L 421.5,326.8 L 422.5,328.5 L 423.5,330.1 L 424.5,331.1 L 425.5,331.5 L 426.5,331.1 L 427.5,330.1 L 428.5,328.5 L 429.5,326.8 L 430.5,325.2 L 431.5,324.0 L 431.5,327.0 L 430.5,328.2 L 429.5,329.8 L 428.5,331.5 L 427.5,333.1 L 426.5,334.1 L 425.5,334.5 L 424.5,334.1 L 423.5,333.1 L 422.5,331.5 L 421.5,329.8 L 420.5,328.2 L 419.5,327.0 L 418.5,326.5 L 417.4,326.7 L 416.4,327.7 L 415.4,329.1 L 414.4,330.8 L 413.4,332.5 L 412.4,333.8 L 411.4,334.4 L 410.4,334.4 L 409.4,333.6 L 408.4,332.2 L 407.4,330.5 Z" fill="rgb(230,90,90)" stroke="rgb(180,60,60)" stroke-width="0.5" /><line stroke="rgb(180,180,180)" stroke-width="1.5" x1="431.5436241610738" x2="435.57046979865765" y1="329.0" y2="329.0" /><path d="M 435.6,327.5 L 436.6,329.2 L 437.6,330.6 L 438.6,331.4 L 439.6,331.4 L 440.6,330.8 L 441.6,329.5 L 442.6,327.8 L 443.6,326.1 L 444.6,324.7 L 445.6,323.7 L 446.6,323.5 L 447.7,324.0 L 448.7,325.2 L 449.7,326.8 L 450.7,328.5 L 451.7,330.1 L 452.7,331.1 L 453.7,331.5 L 454.7,331.1 L 455.7,330.1 L 456.7,328.5 L 457.7,326.8 L 458.7,325.2 L 459.7,324.0 L 460.7,323.5 L 461.7,323.7 L 462.8,324.7 L 463.8,326.1 L 464.8,327.8 L 465.8,329.5 L 466.8,330.8 L 467.8,331.4 L 468.8,331.4 L 469.8,330.6 L 470.8,329.2 L 471.8,327.5 L 472.8,325.8 L 473.8,324.4 L 474.8,323.6 L 475.8,323.6 L 476.8,324.2 L 477.9,325.5 L 478.9,327.2 L 479.9,328.9 L 480.9,330.3 L 481.9,331.3 L 482.9,331.5 L 483.9,331.0 L 484.9,329.8 L 485.9,328.2 L 486.9,326.5 L 487.9,324.9 L 488.9,323.9 L 489.9,323.5 L 490.9,323.9 L 491.9,324.9 L 493.0,326.5 L 494.0,328.2 L 495.0,329.8 L 496.0,331.0 L 497.0,331.5 L 498.0,331.3 L 499.0,330.3 L 500.0,328.9 L 501.0,327.2 L 502.0,325.5 L 503.0,324.2 L 504.0,323.6 L 505.0,323.6 L 506.0,324.4 L 507.0,325.8 L 508.1,327.5 L 509.1,329.2 L 510.1,330.6 L 511.1,331.4 L 512.1,331.4 L 513.1,330.8 L 514.1,329.5 L 515.1,327.8 L 516.1,326.1 L 516.1,329.1 L 515.1,330.8 L 514.1,332.5 L 513.1,333.8 L 512.1,334.4 L 511.1,334.4 L 510.1,333.6 L 509.1,332.2 L 508.1,330.5 L 507.0,328.8 L 506.0,327.4 L 505.0,326.6 L 504.0,326.6 L 503.0,327.2 L 502.0,328.5 L 501.0,330.2 L 500.0,331.9 L 499.0,333.3 L 498.0,334.3 L 497.0,334.5 L 496.0,334.0 L 495.0,332.8 L 494.0,331.2 L 493.0,329.5 L 491.9,327.9 L 490.9,326.9 L 489.9,326.5 L 488.9,326.9 L 487.9,327.9 L 486.9,329.5 L 485.9,331.2 L 484.9,332.8 L 483.9,334.0 L 482.9,334.5 L 481.9,334.3 L 480.9,333.3 L 479.9,331.9 L 478.9,330.2 L 477.9,328.5 L 476.8,327.2 L 475.8,326.6 L 474.8,326.6 L 473.8,327.4 L 472.8,328.8 L 471.8,330.5 L 470.8,332.2 L 469.8,333.6 L 468.8,334.4 L 467.8,334.4 L 466.8,333.8 L 465.8,332.5 L 464.8,330.8 L 463.8,329.1 L 462.8,327.7 L 461.7,326.7 L 460.7,326.5 L 459.7,327.0 L 458.7,328.2 L 457.7,329.8 L 456.7,331.5 L 455.7,333.1 L 454.7,334.1 L 453.7,334.5 L 452.7,334.1 L 451.7,333.1 L 450.7,331.5 L 449.7,329.8 L 448.7,328.2 L 447.7,327.0 L 446.6,326.5 L 445.6,326.7 L 444.6,327.7 L 443.6,329.1 L 442.6,330.8 L 441.6,332.5 L 440.6,333.8 L 439.6,334.4 L 438.6,334.4 L 437.6,333.6 L 436.6,332.2 L 435.6,330.5 Z" fill="rgb(230,90,90)" stroke="rgb(180,60,60)" stroke-width="0.5" /><line stroke="rgb(180,180,180)" stroke-width="1.5" x1="516.1073825503356" x2="528.1879194630872" y1="329.0" y2="329.0" /><path d="M 528.2,327.5 L 529.2,329.2 L 530.2,330.6 L 531.2,331.4 L 532.2,331.4 L 533.2,330.8 L 534.2,329.5 L 535.2,327.8 L 536.2,326.1 L 537.2,324.7 L 538.3,323.7 L 539.3,323.5 L 540.3,324.0 L 541.3,325.2 L 542.3,326.8 L 543.3,328.5 L 544.3,330.1 L 545.3,331.1 L 546.3,331.5 L 547.3,331.1 L 548.3,330.1 L 549.3,328.5 L 550.3,326.8 L 551.3,325.2 L 552.3,324.0 L 553.4,323.5 L 554.4,323.7 L 555.4,324.7 L 556.4,326.1 L 557.4,327.8 L 558.4,329.5 L 559.4,330.8 L 560.4,331.4 L 561.4,331.4 L 562.4,330.6 L 563.4,329.2 L 564.4,327.5 L 565.4,325.8 L 566.4,324.4 L 567.4,323.6 L 568.5,323.6 L 569.5,324.2 L 570.5,325.5 L 571.5,327.2 L 572.5,328.9 L 573.5,330.3 L 574.5,331.3 L 575.5,331.5 L 576.5,331.0 L 577.5,329.8 L 578.5,328.2 L 579.5,326.5 L 580.5,324.9 L 581.5,323.9 L 582.6,323.5 L 583.6,323.9 L 584.6,324.9 L 585.6,326.5 L 586.6,328.2 L 587.6,329.8 L 588.6,331.0 L 588.6,334.0 L 587.6,332.8 L 586.6,331.2 L 585.6,329.5 L 584.6,327.9 L 583.6,326.9 L 582.6,326.5 L 581.5,326.9 L 580.5,327.9 L 579.5,329.5 L 578.5,331.2 L 577.5,332.8 L 576.5,334.0 L 575.5,334.5 L 574.5,334.3 L 573.5,333.3 L 572.5,331.9 L 571.5,330.2 L 570.5,328.5 L 569.5,327.2 L 568.5,326.6 L 567.4,326.6 L 566.4,327.4 L 565.4,328.8 L 564.4,330.5 L 563.4,332.2 L 562.4,333.6 L 561.4,334.4 L 560.4,334.4 L 559.4,333.8 L 558.4,332.5 L 557.4,330.8 L 556.4,329.1 L 555.4,327.7 L 554.4,326.7 L 553.4,326.5 L 552.3,327.0 L 551.3,328.2 L 550.3,329.8 L 549.3,331.5 L 548.3,333.1 L 547.3,334.1 L 546.3,334.5 L 545.3,334.1 L 544.3,333.1 L 543.3,331.5 L 542.3,329.8 L 541.3,328.2 L 540.3,327.0 L 539.3,326.5 L 538.3,326.7 L 537.2,327.7 L 536.2,329.1 L 535.2,330.8 L 534.2,332.5 L 533.2,333.8 L 532.2,334.4 L 531.2,334.4 L 530.2,333.6 L 529.2,332.2 L 528.2,330.5 Z" fill="rgb(230,90,90)" stroke="rgb(180,60,60)" stroke-width="0.5" /><line stroke="rgb(180,180,180)" stroke-width="1.5" x1="588.5906040268455" x2="608.724832214765" y1="329.0" y2="329.0" /><path d="M 608.7,327.5 L 609.7,329.2 L 610.7,330.6 L 611.7,331.4 L 612.8,331.4 L 613.8,330.8 L 614.8,329.5 L 615.8,327.8 L 616.8,326.1 L 617.8,324.7 L 618.8,323.7 L 619.8,323.5 L 620.8,324.0 L 621.8,325.2 L 622.8,326.8 L 623.8,328.5 L 624.8,330.1 L 625.8,331.1 L 626.8,331.5 L 627.9,331.1 L 628.9,330.1 L 629.9,328.5 L 630.9,326.8 L 631.9,325.2 L 632.9,324.0 L 633.9,323.5 L 634.9,323.7 L 635.9,324.7 L 636.9,326.1 L 637.9,327.8 L 638.9,329.5 L 639.9,330.8 L 640.9,331.4 L 641.9,331.4 L 643.0,330.6 L 644.0,329.2 L 645.0,327.5 L 646.0,325.8 L 647.0,324.4 L 648.0,323.6 L 649.0,323.6 L 650.0,324.2 L 651.0,325.5 L 652.0,327.2 L 653.0,328.9 L 654.0,330.3 L 655.0,331.3 L 656.0,331.5 L 657.0,331.0 L 658.1,329.8 L 659.1,328.2 L 660.1,326.5 L 661.1,324.9 L 662.1,323.9 L 663.1,323.5 L 664.1,323.9 L 665.1,324.9 L 666.1,326.5 L 667.1,328.2 L 668.1,329.8 L 669.1,331.0 L 670.1,331.5 L 671.1,331.3 L 672.1,330.3 L 673.2,328.9 L 674.2,327.2 L 675.2,325.5 L 676.2,324.2 L 677.2,323.6 L 678.2,323.6 L 679.2,324.4 L 680.2,325.8 L 681.2,327.5 L 682.2,329.2 L 683.2,330.6 L 684.2,331.4 L 685.2,331.4 L 686.2,330.8 L 687.2,329.5 L 688.3,327.8 L 689.3,326.1 L 690.3,324.7 L 691.3,323.7 L 692.3,323.5 L 693.3,324.0 L 693.3,327.0 L 692.3,326.5 L 691.3,326.7 L 690.3,327.7 L 689.3,329.1 L 688.3,330.8 L 687.2,332.5 L 686.2,333.8 L 685.2,334.4 L 684.2,334.4 L 683.2,333.6 L 682.2,332.2 L 681.2,330.5 L 680.2,328.8 L 679.2,327.4 L 678.2,326.6 L 677.2,326.6 L 676.2,327.2 L 675.2,328.5 L 674.2,330.2 L 673.2,331.9 L 672.1,333.3 L 671.1,334.3 L 670.1,334.5 L 669.1,334.0 L 668.1,332.8 L 667.1,331.2 L 666.1,329.5 L 665.1,327.9 L 664.1,326.9 L 663.1,326.5 L 662.1,326.9 L 661.1,327.9 L 660.1,329.5 L 659.1,331.2 L 658.1,332.8 L 657.0,334.0 L 656.0,334.5 L 655.0,334.3 L 654.0,333.3 L 653.0,331.9 L 652.0,330.2 L 651.0,328.5 L 650.0,327.2 L 649.0,326.6 L 648.0,326.6 L 647.0,327.4 L 646.0,328.8 L 645.0,330.5 L 644.0,332.2 L 643.0,333.6 L 641.9,334.4 L 640.9,334.4 L 639.9,333.8 L 638.9,332.5 L 637.9,330.8 L 636.9,329.1 L 635.9,327.7 L 634.9,326.7 L 633.9,326.5 L 632.9,327.0 L 631.9,328.2 L 630.9,329.8 L 629.9,331.5 L 628.9,333.1 L 627.9,334.1 L 626.8,334.5 L 625.8,334.1 L 624.8,333.1 L 623.8,331.5 L 622.8,329.8 L 621.8,328.2 L 620.8,327.0 L 619.8,326.5 L 618.8,326.7 L 617.8,327.7 L 616.8,329.1 L 615.8,330.8 L 614.8,332.5 L 613.8,333.8 L 612.8,334.4 L 611.7,334.4 L 610.7,333.6 L 609.7,332.2 L 608.7,330.5 Z" fill="rgb(230,90,90)" stroke="rgb(180,60,60)" stroke-width="0.5" /><line stroke="rgb(180,180,180)" stroke-width="1.5" x1="693.2885906040268" x2="701.3422818791946" y1="329.0" y2="329.0" /><path d="M 701.3,327.5 L 702.3,329.2 L 703.4,330.6 L 704.4,331.4 L 705.4,331.4 L 706.4,330.8 L 707.4,329.5 L 708.4,327.8 L 709.4,326.1 L 710.4,324.7 L 711.4,323.7 L 712.4,323.5 L 713.4,324.0 L 714.4,325.2 L 715.4,326.8 L 716.4,328.5 L 717.4,330.1 L 718.5,331.1 L 719.5,331.5 L 720.5,331.1 L 721.5,330.1 L 722.5,328.5 L 723.5,326.8 L 724.5,325.2 L 725.5,324.0 L 726.5,323.5 L 727.5,323.7 L 728.5,324.7 L 729.5,326.1 L 730.5,327.8 L 731.5,329.5 L 732.6,330.8 L 733.6,331.4 L 734.6,331.4 L 735.6,330.6 L 736.6,329.2 L 737.6,327.5 L 738.6,325.8 L 739.6,324.4 L 740.6,323.6 L 741.6,323.6 L 742.6,324.2 L 743.6,325.5 L 744.6,327.2 L 745.6,328.9 L 746.6,330.3 L 747.7,331.3 L 748.7,331.5 L 749.7,331.0 L 750.7,329.8 L 751.7,328.2 L 752.7,326.5 L 753.7,324.9 L 754.7,323.9 L 755.7,323.5 L 756.7,323.9 L 757.7,324.9 L 758.7,326.5 L 759.7,328.2 L 760.7,329.8 L 761.7,331.0 L 762.8,331.5 L 763.8,331.3 L 764.8,330.3 L 765.8,328.9 L 766.8,327.2 L 767.8,325.5 L 768.8,324.2 L 769.8,323.6 L 770.8,323.6 L 771.8,324.4 L 772.8,325.8 L 773.8,327.5 L 774.8,329.2 L 775.8,330.6 L 776.8,331.4 L 777.9,331.4 L 777.9,334.4 L 776.8,334.4 L 775.8,333.6 L 774.8,332.2 L 773.8,330.5 L 772.8,328.8 L 771.8,327.4 L 770.8,326.6 L 769.8,326.6 L 768.8,327.2 L 767.8,328.5 L 766.8,330.2 L 765.8,331.9 L 764.8,333.3 L 763.8,334.3 L 762.8,334.5 L 761.7,334.0 L 760.7,332.8 L 759.7,331.2 L 758.7,329.5 L 757.7,327.9 L 756.7,326.9 L 755.7,326.5 L 754.7,326.9 L 753.7,327.9 L 752.7,329.5 L 751.7,331.2 L 750.7,332.8 L 749.7,334.0 L 748.7,334.5 L 747.7,334.3 L 746.6,333.3 L 745.6,331.9 L 744.6,330.2 L 743.6,328.5 L 742.6,327.2 L 741.6,326.6 L 740.6,326.6 L 739.6,327.4 L 738.6,328.8 L 737.6,330.5 L 736.6,332.2 L 735.6,333.6 L 734.6,334.4 L 733.6,334.4 L 732.6,333.8 L 731.5,332.5 L 730.5,330.8 L 729.5,329.1 L 728.5,327.7 L 727.5,326.7 L 726.5,326.5 L 725.5,327.0 L 724.5,328.2 L 723.5,329.8 L 722.5,331.5 L 721.5,333.1 L 720.5,334.1 L 719.5,334.5 L 718.5,334.1 L 717.4,333.1 L 716.4,331.5 L 715.4,329.8 L 714.4,328.2 L 713.4,327.0 L 712.4,326.5 L 711.4,326.7 L 710.4,327.7 L 709.4,329.1 L 708.4,330.8 L 707.4,332.5 L 706.4,333.8 L 705.4,334.4 L 704.4,334.4 L 703.4,333.6 L 702.3,332.2 L 701.3,330.5 Z" fill="rgb(230,90,90)" stroke="rgb(180,60,60)" stroke-width="0.5" /><line stroke="rgb(180,180,180)" stroke-width="1.5" x1="777.8523489932885" x2="791.9463087248322" y1="329.0" y2="329.0" /><line stroke="gray" stroke-width="1" x1="200.0" x2="200.0" y1="337" y2="342" /><line stroke="gray" stroke-width="1" x1="401.3422818791946" x2="401.3422818791946" y1="337" y2="342" /><text fill="gray" font-size="10px" text-anchor="middle" x="401.3422818791946" y="355">50</text><line stroke="gray" stroke-width="1" x1="602.6845637583892" x2="602.6845637583892" y1="337" y2="342" /><text fill="gray" font-size="10px" text-anchor="middle" x="602.6845637583892" y="355">100</text><text fill="black" font-size="14px" text-anchor="end" x="190" y="423">Myoglobin</text><line stroke="black" stroke-width="2" x1="200" x2="800.0" y1="418" y2="418" /><line stroke="rgb(100,150,255)" stroke-width="1.5" x1="256.3758389261745" x2="256.3758389261745" y1="418" y2="408" /><text fill="rgb(100,150,255)" font-size="8px" text-anchor="middle" x="256.3758389261745" y="393">14</text><text fill="rgb(100,150,255)" font-size="12px" font-weight="bold" text-anchor="middle" x="256.3758389261745" y="403">W</text><line stroke="rgb(230,130,0)" stroke-width="1.5" x1="300.6711409395973" x2="300.6711409395973" y1="418" y2="408" /><text fill="rgb(230,130,0)" font-size="8px" text-anchor="middle" x="300.6711409395973" y="393">25</text><text fill="rgb(230,130,0)" font-size="12px" font-weight="bold" text-anchor="middle" x="300.6711409395973" y="403">G</text><line stroke="rgb(100,150,255)" stroke-width="1.5" x1="332.8859060402685" x2="332.8859060402685" y1="418" y2="408" /><text fill="rgb(100,150,255)" font-size="8px" text-anchor="middle" x="332.8859060402685" y="393">33</text><text fill="rgb(100,150,255)" font-size="12px" font-weight="bold" text-anchor="middle" x="332.8859060402685" y="403">F</text><line stroke="rgb(100,150,255)" stroke-width="1.5" x1="348.99328859060404" x2="348.99328859060404" y1="418" y2="383" /><text fill="rgb(100,150,255)" font-size="8px" text-anchor="middle" x="348.99328859060404" y="368">37</text><text fill="rgb(100,150,255)" font-size="12px" font-weight="bold" text-anchor="middle" x="348.99328859060404" y="378">P</text><line stroke="rgb(100,150,255)" stroke-width="1.5" x1="373.1543624161074" x2="373.1543624161074" y1="418" y2="408" /><text fill="rgb(100,150,255)" font-size="8px" text-anchor="middle" x="373.1543624161074" y="393">43</text><text fill="rgb(100,150,255)" font-size="12px" font-weight="bold" text-anchor="middle" x="373.1543624161074" y="403">F</text><line stroke="rgb(100,150,255)" stroke-width="1.5" x1="385.2348993288591" x2="385.2348993288591" y1="418" y2="383" /><text fill="rgb(100,150,255)" font-size="8px" text-anchor="middle" x="385.2348993288591" y="368">46</text><text fill="rgb(100,150,255)" font-size="12px" font-weight="bold" text-anchor="middle" x="385.2348993288591" y="378">F</text><line stroke="rgb(100,150,255)" stroke-width="1.5" x1="473.8255033557047" x2="473.8255033557047" y1="418" y2="408" /><text fill="rgb(100,150,255)" font-size="8px" text-anchor="middle" x="473.8255033557047" y="393">68</text><text fill="rgb(100,150,255)" font-size="12px" font-weight="bold" text-anchor="middle" x="473.8255033557047" y="403">V</text><line stroke="rgb(21,164,164)" stroke-width="1.5" x1="574.4966442953021" x2="574.4966442953021" y1="418" y2="408" /><text fill="rgb(21,164,164)" font-size="8px" text-anchor="middle" x="574.4966442953021" y="393">93</text><text fill="rgb(21,164,164)" font-size="12px" font-weight="bold" text-anchor="middle" x="574.4966442953021" y="403">H</text><line stroke="rgb(21,164,164)" stroke-width="1.5" x1="787.9194630872483" x2="787.9194630872483" y1="418" y2="408" /><text fill="rgb(21,164,164)" font-size="8px" text-anchor="middle" x="787.9194630872483" y="393">146</text><text fill="rgb(21,164,164)" font-size="12px" font-weight="bold" text-anchor="middle" x="787.9194630872483" y="403">Y</text><line stroke="rgb(180,180,180)" stroke-width="1.5" x1="202.01342281879195" x2="214.09395973154363" y1="429.0" y2="429.0" /><path d="M 214.1,427.5 L 215.1,429.2 L 216.1,430.6 L 217.1,431.4 L 218.1,431.4 L 219.1,430.8 L 220.1,429.5 L 221.1,427.8 L 222.1,426.1 L 223.2,424.7 L 224.2,423.7 L 225.2,423.5 L 226.2,424.0 L 227.2,425.2 L 228.2,426.8 L 229.2,428.5 L 230.2,430.1 L 231.2,431.1 L 232.2,431.5 L 233.2,431.1 L 234.2,430.1 L 235.2,428.5 L 236.2,426.8 L 237.2,425.2 L 238.3,424.0 L 239.3,423.5 L 240.3,423.7 L 241.3,424.7 L 242.3,426.1 L 243.3,427.8 L 244.3,429.5 L 245.3,430.8 L 246.3,431.4 L 247.3,431.4 L 248.3,430.6 L 249.3,429.2 L 250.3,427.5 L 251.3,425.8 L 252.3,424.4 L 253.4,423.6 L 254.4,423.6 L 255.4,424.2 L 256.4,425.5 L 257.4,427.2 L 258.4,428.9 L 259.4,430.3 L 260.4,431.3 L 261.4,431.5 L 262.4,431.0 L 263.4,429.8 L 264.4,428.2 L 265.4,426.5 L 266.4,424.9 L 267.4,423.9 L 268.5,423.5 L 269.5,423.9 L 270.5,424.9 L 271.5,426.5 L 272.5,428.2 L 273.5,429.8 L 274.5,431.0 L 275.5,431.5 L 276.5,431.3 L 277.5,430.3 L 278.5,428.9 L 279.5,427.2 L 280.5,425.5 L 281.5,424.2 L 282.6,423.6 L 283.6,423.6 L 284.6,424.4 L 285.6,425.8 L 286.6,427.5 L 287.6,429.2 L 288.6,430.6 L 289.6,431.4 L 290.6,431.4 L 291.6,430.8 L 292.6,429.5 L 293.6,427.8 L 294.6,426.1 L 295.6,424.7 L 296.6,423.7 L 297.7,423.5 L 298.7,424.0 L 299.7,425.2 L 300.7,426.8 L 301.7,428.5 L 302.7,430.1 L 303.7,431.1 L 304.7,431.5 L 305.7,431.1 L 306.7,430.1 L 307.7,428.5 L 308.7,426.8 L 309.7,425.2 L 310.7,424.0 L 311.7,423.5 L 312.8,423.7 L 313.8,424.7 L 314.8,426.1 L 315.8,427.8 L 316.8,429.5 L 317.8,430.8 L 318.8,431.4 L 319.8,431.4 L 320.8,430.6 L 321.8,429.2 L 322.8,427.5 L 323.8,425.8 L 324.8,424.4 L 325.8,423.6 L 326.8,423.6 L 327.9,424.2 L 328.9,425.5 L 329.9,427.2 L 330.9,428.9 L 331.9,430.3 L 332.9,431.3 L 333.9,431.5 L 334.9,431.0 L 335.9,429.8 L 336.9,428.2 L 337.9,426.5 L 338.9,424.9 L 339.9,423.9 L 340.9,423.5 L 341.9,423.9 L 343.0,424.9 L 343.0,427.9 L 341.9,426.9 L 340.9,426.5 L 339.9,426.9 L 338.9,427.9 L 337.9,429.5 L 336.9,431.2 L 335.9,432.8 L 334.9,434.0 L 333.9,434.5 L 332.9,434.3 L 331.9,433.3 L 330.9,431.9 L 329.9,430.2 L 328.9,428.5 L 327.9,427.2 L 326.8,426.6 L 325.8,426.6 L 324.8,427.4 L 323.8,428.8 L 322.8,430.5 L 321.8,432.2 L 320.8,433.6 L 319.8,434.4 L 318.8,434.4 L 317.8,433.8 L 316.8,432.5 L 315.8,430.8 L 314.8,429.1 L 313.8,427.7 L 312.8,426.7 L 311.7,426.5 L 310.7,427.0 L 309.7,428.2 L 308.7,429.8 L 307.7,431.5 L 306.7,433.1 L 305.7,434.1 L 304.7,434.5 L 303.7,434.1 L 302.7,433.1 L 301.7,431.5 L 300.7,429.8 L 299.7,428.2 L 298.7,427.0 L 297.7,426.5 L 296.6,426.7 L 295.6,427.7 L 294.6,429.1 L 293.6,430.8 L 292.6,432.5 L 291.6,433.8 L 290.6,434.4 L 289.6,434.4 L 288.6,433.6 L 287.6,432.2 L 286.6,430.5 L 285.6,428.8 L 284.6,427.4 L 283.6,426.6 L 282.6,426.6 L 281.5,427.2 L 280.5,428.5 L 279.5,430.2 L 278.5,431.9 L 277.5,433.3 L 276.5,434.3 L 275.5,434.5 L 274.5,434.0 L 273.5,432.8 L 272.5,431.2 L 271.5,429.5 L 270.5,427.9 L 269.5,426.9 L 268.5,426.5 L 267.4,426.9 L 266.4,427.9 L 265.4,429.5 L 264.4,431.2 L 263.4,432.8 L 262.4,434.0 L 261.4,434.5 L 260.4,434.3 L 259.4,433.3 L 258.4,431.9 L 257.4,430.2 L 256.4,428.5 L 255.4,427.2 L 254.4,426.6 L 253.4,426.6 L 252.3,427.4 L 251.3,428.8 L 250.3,430.5 L 249.3,432.2 L 248.3,433.6 L 247.3,434.4 L 246.3,434.4 L 245.3,433.8 L 244.3,432.5 L 243.3,430.8 L 242.3,429.1 L 241.3,427.7 L 240.3,426.7 L 239.3,426.5 L 238.3,427.0 L 237.2,428.2 L 236.2,429.8 L 235.2,431.5 L 234.2,433.1 L 233.2,434.1 L 232.2,434.5 L 231.2,434.1 L 230.2,433.1 L 229.2,431.5 L 228.2,429.8 L 227.2,428.2 L 226.2,427.0 L 225.2,426.5 L 224.2,426.7 L 223.2,427.7 L 222.1,429.1 L 221.1,430.8 L 220.1,432.5 L 219.1,433.8 L 218.1,434.4 L 217.1,434.4 L 216.1,433.6 L 215.1,432.2 L 214.1,430.5 Z" fill="rgb(230,90,90)" stroke="rgb(180,60,60)" stroke-width="0.5" /><line stroke="rgb(180,180,180)" stroke-width="1.5" x1="342.9530201342282" x2="346.9798657718121" y1="429.0" y2="429.0" /><path d="M 347.0,427.5 L 348.0,429.2 L 349.0,430.6 L 350.0,431.4 L 351.0,431.4 L 352.0,430.8 L 353.0,429.5 L 354.0,427.8 L 355.0,426.1 L 356.0,424.7 L 357.0,423.7 L 358.1,423.5 L 359.1,424.0 L 360.1,425.2 L 361.1,426.8 L 362.1,428.5 L 363.1,430.1 L 364.1,431.1 L 365.1,431.5 L 366.1,431.1 L 367.1,430.1 L 368.1,428.5 L 369.1,426.8 L 370.1,425.2 L 371.1,424.0 L 371.1,427.0 L 370.1,428.2 L 369.1,429.8 L 368.1,431.5 L 367.1,433.1 L 366.1,434.1 L 365.1,434.5 L 364.1,434.1 L 363.1,433.1 L 362.1,431.5 L 361.1,429.8 L 360.1,428.2 L 359.1,427.0 L 358.1,426.5 L 357.0,426.7 L 356.0,427.7 L 355.0,429.1 L 354.0,430.8 L 353.0,432.5 L 352.0,433.8 L 351.0,434.4 L 350.0,434.4 L 349.0,433.6 L 348.0,432.2 L 347.0,430.5 Z" fill="rgb(230,90,90)" stroke="rgb(180,60,60)" stroke-width="0.5" /><line stroke="rgb(180,180,180)" stroke-width="1.5" x1="371.1409395973154" x2="375.1677852348994" y1="429.0" y2="429.0" /><path d="M 375.2,427.5 L 375.8,428.5 L 376.4,429.5 L 377.0,430.3 L 377.6,431.0 L 378.2,431.4 L 378.8,431.5 L 379.4,431.4 L 380.0,431.0 L 380.6,430.3 L 381.2,429.5 L 381.8,428.5 L 382.4,427.5 L 383.0,426.5 L 383.6,425.5 L 384.2,424.7 L 384.8,424.0 L 385.4,423.6 L 386.0,423.5 L 386.6,423.6 L 387.2,424.0 L 387.2,427.0 L 386.6,426.6 L 386.0,426.5 L 385.4,426.6 L 384.8,427.0 L 384.2,427.7 L 383.6,428.5 L 383.0,429.5 L 382.4,430.5 L 381.8,431.5 L 381.2,432.5 L 380.6,433.3 L 380.0,434.0 L 379.4,434.4 L 378.8,434.5 L 378.2,434.4 L 377.6,434.0 L 377.0,433.3 L 376.4,432.5 L 375.8,431.5 L 375.2,430.5 Z" fill="rgb(230,90,90)" stroke="rgb(180,60,60)" stroke-width="0.5" /><line stroke="rgb(180,180,180)" stroke-width="1.5" x1="387.24832214765104" x2="407.3825503355705" y1="429.0" y2="429.0" /><path d="M 407.4,427.5 L 408.4,429.2 L 409.4,430.6 L 410.4,431.4 L 411.4,431.4 L 412.4,430.8 L 413.4,429.5 L 414.4,427.8 L 415.4,426.1 L 416.4,424.7 L 417.4,423.7 L 418.5,423.5 L 419.5,424.0 L 420.5,425.2 L 421.5,426.8 L 422.5,428.5 L 423.5,430.1 L 424.5,431.1 L 425.5,431.5 L 426.5,431.1 L 427.5,430.1 L 427.5,433.1 L 426.5,434.1 L 425.5,434.5 L 424.5,434.1 L 423.5,433.1 L 422.5,431.5 L 421.5,429.8 L 420.5,428.2 L 419.5,427.0 L 418.5,426.5 L 417.4,426.7 L 416.4,427.7 L 415.4,429.1 L 414.4,430.8 L 413.4,432.5 L 412.4,433.8 L 411.4,434.4 L 410.4,434.4 L 409.4,433.6 L 408.4,432.2 L 407.4,430.5 Z" fill="rgb(230,90,90)" stroke="rgb(180,60,60)" stroke-width="0.5" /><line stroke="rgb(180,180,180)" stroke-width="1.5" x1="427.51677852348996" x2="435.57046979865777" y1="429.0" y2="429.0" /><path d="M 435.6,427.5 L 436.6,429.2 L 437.6,430.6 L 438.6,431.4 L 439.6,431.4 L 440.6,430.8 L 441.6,429.5 L 442.6,427.8 L 443.6,426.1 L 444.6,424.7 L 445.6,423.7 L 446.6,423.5 L 447.7,424.0 L 448.7,425.2 L 449.7,426.8 L 450.7,428.5 L 451.7,430.1 L 452.7,431.1 L 453.7,431.5 L 454.7,431.1 L 455.7,430.1 L 456.7,428.5 L 457.7,426.8 L 458.7,425.2 L 459.7,424.0 L 460.7,423.5 L 461.7,423.7 L 462.8,424.7 L 463.8,426.1 L 464.8,427.8 L 465.8,429.5 L 466.8,430.8 L 467.8,431.4 L 468.8,431.4 L 469.8,430.6 L 470.8,429.2 L 471.8,427.5 L 472.8,425.8 L 473.8,424.4 L 474.8,423.6 L 475.8,423.6 L 476.8,424.2 L 477.9,425.5 L 478.9,427.2 L 479.9,428.9 L 480.9,430.3 L 481.9,431.3 L 482.9,431.5 L 483.9,431.0 L 484.9,429.8 L 485.9,428.2 L 486.9,426.5 L 487.9,424.9 L 488.9,423.9 L 489.9,423.5 L 490.9,423.9 L 491.9,424.9 L 493.0,426.5 L 494.0,428.2 L 495.0,429.8 L 496.0,431.0 L 497.0,431.5 L 498.0,431.3 L 499.0,430.3 L 500.0,428.9 L 501.0,427.2 L 502.0,425.5 L 503.0,424.2 L 504.0,423.6 L 505.0,423.6 L 506.0,424.4 L 507.0,425.8 L 508.1,427.5 L 508.1,430.5 L 507.0,428.8 L 506.0,427.4 L 505.0,426.6 L 504.0,426.6 L 503.0,427.2 L 502.0,428.5 L 501.0,430.2 L 500.0,431.9 L 499.0,433.3 L 498.0,434.3 L 497.0,434.5 L 496.0,434.0 L 495.0,432.8 L 494.0,431.2 L 493.0,429.5 L 491.9,427.9 L 490.9,426.9 L 489.9,426.5 L 488.9,426.9 L 487.9,427.9 L 486.9,429.5 L 485.9,431.2 L 484.9,432.8 L 483.9,434.0 L 482.9,434.5 L 481.9,434.3 L 480.9,433.3 L 479.9,431.9 L 478.9,430.2 L 477.9,428.5 L 476.8,427.2 L 475.8,426.6 L 474.8,426.6 L 473.8,427.4 L 472.8,428.8 L 471.8,430.5 L 470.8,432.2 L 469.8,433.6 L 468.8,434.4 L 467.8,434.4 L 466.8,433.8 L 465.8,432.5 L 464.8,430.8 L 463.8,429.1 L 462.8,427.7 L 461.7,426.7 L 460.7,426.5 L 459.7,427.0 L 458.7,428.2 L 457.7,429.8 L 456.7,431.5 L 455.7,433.1 L 454.7,434.1 L 453.7,434.5 L 452.7,434.1 L 451.7,433.1 L 450.7,431.5 L 449.7,429.8 L 448.7,428.2 L 447.7,427.0 L 446.6,426.5 L 445.6,426.7 L 444.6,427.7 L 443.6,429.1 L 442.6,430.8 L 441.6,432.5 L 440.6,433.8 L 439.6,434.4 L 438.6,434.4 L 437.6,433.6 L 436.6,432.2 L 435.6,430.5 Z" fill="rgb(230,90,90)" stroke="rgb(180,60,60)" stroke-width="0.5" /><line stroke="rgb(180,180,180)" stroke-width="1.5" x1="508.0536912751678" x2="532.2147651006712" y1="429.0" y2="429.0" /><path d="M 532.2,427.5 L 533.2,429.2 L 534.2,430.6 L 535.2,431.4 L 536.2,431.4 L 537.2,430.8 L 538.3,429.5 L 539.3,427.8 L 540.3,426.1 L 541.3,424.7 L 542.3,423.7 L 543.3,423.5 L 544.3,424.0 L 545.3,425.2 L 546.3,426.8 L 547.3,428.5 L 548.3,430.1 L 549.3,431.1 L 550.3,431.5 L 551.3,431.1 L 552.3,430.1 L 553.4,428.5 L 554.4,426.8 L 555.4,425.2 L 556.4,424.0 L 557.4,423.5 L 558.4,423.7 L 559.4,424.7 L 560.4,426.1 L 561.4,427.8 L 562.4,429.5 L 563.4,430.8 L 564.4,431.4 L 565.4,431.4 L 566.4,430.6 L 567.4,429.2 L 568.5,427.5 L 569.5,425.8 L 570.5,424.4 L 571.5,423.6 L 572.5,423.6 L 573.5,424.2 L 574.5,425.5 L 575.5,427.2 L 576.5,428.9 L 577.5,430.3 L 578.5,431.3 L 579.5,431.5 L 580.5,431.0 L 581.5,429.8 L 582.6,428.2 L 583.6,426.5 L 584.6,424.9 L 584.6,427.9 L 583.6,429.5 L 582.6,431.2 L 581.5,432.8 L 580.5,434.0 L 579.5,434.5 L 578.5,434.3 L 577.5,433.3 L 576.5,431.9 L 575.5,430.2 L 574.5,428.5 L 573.5,427.2 L 572.5,426.6 L 571.5,426.6 L 570.5,427.4 L 569.5,428.8 L 568.5,430.5 L 567.4,432.2 L 566.4,433.6 L 565.4,434.4 L 564.4,434.4 L 563.4,433.8 L 562.4,432.5 L 561.4,430.8 L 560.4,429.1 L 559.4,427.7 L 558.4,426.7 L 557.4,426.5 L 556.4,427.0 L 555.4,428.2 L 554.4,429.8 L 553.4,431.5 L 552.3,433.1 L 551.3,434.1 L 550.3,434.5 L 549.3,434.1 L 548.3,433.1 L 547.3,431.5 L 546.3,429.8 L 545.3,428.2 L 544.3,427.0 L 543.3,426.5 L 542.3,426.7 L 541.3,427.7 L 540.3,429.1 L 539.3,430.8 L 538.3,432.5 L 537.2,433.8 L 536.2,434.4 L 535.2,434.4 L 534.2,433.6 L 533.2,432.2 L 532.2,430.5 Z" fill="rgb(230,90,90)" stroke="rgb(180,60,60)" stroke-width="0.5" /><line stroke="rgb(180,180,180)" stroke-width="1.5" x1="584.5637583892618" x2="604.6979865771813" y1="429.0" y2="429.0" /><path d="M 604.7,427.5 L 605.7,429.2 L 606.7,430.6 L 607.7,431.4 L 608.7,431.4 L 609.7,430.8 L 610.7,429.5 L 611.7,427.8 L 612.8,426.1 L 613.8,424.7 L 614.8,423.7 L 615.8,423.5 L 616.8,424.0 L 617.8,425.2 L 618.8,426.8 L 619.8,428.5 L 620.8,430.1 L 621.8,431.1 L 622.8,431.5 L 623.8,431.1 L 624.8,430.1 L 625.8,428.5 L 626.8,426.8 L 627.9,425.2 L 628.9,424.0 L 629.9,423.5 L 630.9,423.7 L 631.9,424.7 L 632.9,426.1 L 633.9,427.8 L 634.9,429.5 L 635.9,430.8 L 636.9,431.4 L 637.9,431.4 L 638.9,430.6 L 639.9,429.2 L 640.9,427.5 L 641.9,425.8 L 643.0,424.4 L 644.0,423.6 L 645.0,423.6 L 646.0,424.2 L 647.0,425.5 L 648.0,427.2 L 649.0,428.9 L 650.0,430.3 L 651.0,431.3 L 652.0,431.5 L 653.0,431.0 L 654.0,429.8 L 655.0,428.2 L 656.0,426.5 L 657.0,424.9 L 658.1,423.9 L 659.1,423.5 L 660.1,423.9 L 661.1,424.9 L 662.1,426.5 L 663.1,428.2 L 664.1,429.8 L 665.1,431.0 L 666.1,431.5 L 667.1,431.3 L 668.1,430.3 L 669.1,428.9 L 670.1,427.2 L 671.1,425.5 L 672.1,424.2 L 673.2,423.6 L 674.2,423.6 L 675.2,424.4 L 676.2,425.8 L 677.2,427.5 L 677.2,430.5 L 676.2,428.8 L 675.2,427.4 L 674.2,426.6 L 673.2,426.6 L 672.1,427.2 L 671.1,428.5 L 670.1,430.2 L 669.1,431.9 L 668.1,433.3 L 667.1,434.3 L 666.1,434.5 L 665.1,434.0 L 664.1,432.8 L 663.1,431.2 L 662.1,429.5 L 661.1,427.9 L 660.1,426.9 L 659.1,426.5 L 658.1,426.9 L 657.0,427.9 L 656.0,429.5 L 655.0,431.2 L 654.0,432.8 L 653.0,434.0 L 652.0,434.5 L 651.0,434.3 L 650.0,433.3 L 649.0,431.9 L 648.0,430.2 L 647.0,428.5 L 646.0,427.2 L 645.0,426.6 L 644.0,426.6 L 643.0,427.4 L 641.9,428.8 L 640.9,430.5 L 639.9,432.2 L 638.9,433.6 L 637.9,434.4 L 636.9,434.4 L 635.9,433.8 L 634.9,432.5 L 633.9,430.8 L 632.9,429.1 L 631.9,427.7 L 630.9,426.7 L 629.9,426.5 L 628.9,427.0 L 627.9,428.2 L 626.8,429.8 L 625.8,431.5 L 624.8,433.1 L 623.8,434.1 L 622.8,434.5 L 621.8,434.1 L 620.8,433.1 L 619.8,431.5 L 618.8,429.8 L 617.8,428.2 L 616.8,427.0 L 615.8,426.5 L 614.8,426.7 L 613.8,427.7 L 612.8,429.1 L 611.7,430.8 L 610.7,432.5 L 609.7,433.8 L 608.7,434.4 L 607.7,434.4 L 606.7,433.6 L 605.7,432.2 L 604.7,430.5 Z" fill="rgb(230,90,90)" stroke="rgb(180,60,60)" stroke-width="0.5" /><line stroke="rgb(180,180,180)" stroke-width="1.5" x1="677.1812080536913" x2="701.3422818791946" y1="429.0" y2="429.0" /><path d="M 701.3,427.5 L 702.3,429.2 L 703.4,430.6 L 704.4,431.4 L 705.4,431.4 L 706.4,430.8 L 707.4,429.5 L 708.4,427.8 L 709.4,426.1 L 710.4,424.7 L 711.4,423.7 L 712.4,423.5 L 713.4,424.0 L 714.4,425.2 L 715.4,426.8 L 716.4,428.5 L 717.4,430.1 L 718.5,431.1 L 719.5,431.5 L 720.5,431.1 L 721.5,430.1 L 722.5,428.5 L 723.5,426.8 L 724.5,425.2 L 725.5,424.0 L 726.5,423.5 L 727.5,423.7 L 728.5,424.7 L 729.5,426.1 L 730.5,427.8 L 731.5,429.5 L 732.6,430.8 L 733.6,431.4 L 734.6,431.4 L 735.6,430.6 L 736.6,429.2 L 737.6,427.5 L 738.6,425.8 L 739.6,424.4 L 740.6,423.6 L 741.6,423.6 L 742.6,424.2 L 743.6,425.5 L 744.6,427.2 L 745.6,428.9 L 746.6,430.3 L 747.7,431.3 L 748.7,431.5 L 749.7,431.0 L 750.7,429.8 L 751.7,428.2 L 752.7,426.5 L 753.7,424.9 L 754.7,423.9 L 755.7,423.5 L 756.7,423.9 L 757.7,424.9 L 758.7,426.5 L 759.7,428.2 L 760.7,429.8 L 761.7,431.0 L 762.8,431.5 L 763.8,431.3 L 764.8,430.3 L 765.8,428.9 L 766.8,427.2 L 767.8,425.5 L 768.8,424.2 L 769.8,423.6 L 770.8,423.6 L 771.8,424.4 L 772.8,425.8 L 773.8,427.5 L 774.8,429.2 L 775.8,430.6 L 776.8,431.4 L 777.9,431.4 L 778.9,430.8 L 779.9,429.5 L 780.9,427.8 L 781.9,426.1 L 782.9,424.7 L 783.9,423.7 L 784.9,423.5 L 785.9,424.0 L 786.9,425.2 L 787.9,426.8 L 788.9,428.5 L 789.9,430.1 L 790.9,431.1 L 791.9,431.5 L 793.0,431.1 L 794.0,430.1 L 795.0,428.5 L 796.0,426.8 L 797.0,425.2 L 798.0,424.0 L 798.0,427.0 L 797.0,428.2 L 796.0,429.8 L 795.0,431.5 L 794.0,433.1 L 793.0,434.1 L 791.9,434.5 L 790.9,434.1 L 789.9,433.1 L 788.9,431.5 L 787.9,429.8 L 786.9,428.2 L 785.9,427.0 L 784.9,426.5 L 783.9,426.7 L 782.9,427.7 L 781.9,429.1 L 780.9,430.8 L 779.9,432.5 L 778.9,433.8 L 777.9,434.4 L 776.8,434.4 L 775.8,433.6 L 774.8,432.2 L 773.8,430.5 L 772.8,428.8 L 771.8,427.4 L 770.8,426.6 L 769.8,426.6 L 768.8,427.2 L 767.8,428.5 L 766.8,430.2 L 765.8,431.9 L 764.8,433.3 L 763.8,434.3 L 762.8,434.5 L 761.7,434.0 L 760.7,432.8 L 759.7,431.2 L 758.7,429.5 L 757.7,427.9 L 756.7,426.9 L 755.7,426.5 L 754.7,426.9 L 753.7,427.9 L 752.7,429.5 L 751.7,431.2 L 750.7,432.8 L 749.7,434.0 L 748.7,434.5 L 747.7,434.3 L 746.6,433.3 L 745.6,431.9 L 744.6,430.2 L 743.6,428.5 L 742.6,427.2 L 741.6,426.6 L 740.6,426.6 L 739.6,427.4 L 738.6,428.8 L 737.6,430.5 L 736.6,432.2 L 735.6,433.6 L 734.6,434.4 L 733.6,434.4 L 732.6,433.8 L 731.5,432.5 L 730.5,430.8 L 729.5,429.1 L 728.5,427.7 L 727.5,426.7 L 726.5,426.5 L 725.5,427.0 L 724.5,428.2 L 723.5,429.8 L 722.5,431.5 L 721.5,433.1 L 720.5,434.1 L 719.5,434.5 L 718.5,434.1 L 717.4,433.1 L 716.4,431.5 L 715.4,429.8 L 714.4,428.2 L 713.4,427.0 L 712.4,426.5 L 711.4,426.7 L 710.4,427.7 L 709.4,429.1 L 708.4,430.8 L 707.4,432.5 L 706.4,433.8 L 705.4,434.4 L 704.4,434.4 L 703.4,433.6 L 702.3,432.2 L 701.3,430.5 Z" fill="rgb(230,90,90)" stroke="rgb(180,60,60)" stroke-width="0.5" /><line stroke="rgb(180,180,180)" stroke-width="1.5" x1="797.9865771812081" x2="800.0" y1="429.0" y2="429.0" /><line stroke="gray" stroke-width="1" x1="200.0" x2="200.0" y1="437" y2="442" /><line stroke="gray" stroke-width="1" x1="401.3422818791946" x2="401.3422818791946" y1="437" y2="442" /><text fill="gray" font-size="10px" text-anchor="middle" x="401.3422818791946" y="455">50</text><line stroke="gray" stroke-width="1" x1="602.6845637583892" x2="602.6845637583892" y1="437" y2="442" /><text fill="gray" font-size="10px" text-anchor="middle" x="602.6845637583892" y="455">100</text><line stroke="rgb(230,130,0)" stroke-dasharray="3,3" stroke-opacity="0.4" stroke-width="1" x1="304.6979865771812" x2="300.6711409395973" y1="143" y2="318" /><line stroke="rgb(230,130,0)" stroke-dasharray="3,3" stroke-opacity="0.4" stroke-width="1" x1="300.6711409395973" x2="300.6711409395973" y1="318" y2="418" /><line stroke="rgb(100,150,255)" stroke-dasharray="3,3" stroke-opacity="0.4" stroke-width="1" x1="353.02013422818794" x2="348.99328859060404" y1="143" y2="318" /><line stroke="rgb(100,150,255)" stroke-dasharray="3,3" stroke-opacity="0.4" stroke-width="1" x1="348.99328859060404" x2="348.99328859060404" y1="318" y2="418" /><line stroke="rgb(100,150,255)" stroke-dasharray="3,3" stroke-opacity="0.4" stroke-width="1" x1="377.1812080536913" x2="373.1543624161074" y1="143" y2="318" /><line stroke="rgb(100,150,255)" stroke-dasharray="3,3" stroke-opacity="0.4" stroke-width="1" x1="373.1543624161074" x2="373.1543624161074" y1="318" y2="418" /><line stroke="rgb(21,164,164)" stroke-dasharray="3,3" stroke-opacity="0.4" stroke-width="1" x1="554.3624161073826" x2="574.4966442953021" y1="143" y2="318" /><line stroke="rgb(21,164,164)" stroke-dasharray="3,3" stroke-opacity="0.4" stroke-width="1" x1="574.4966442953021" x2="574.4966442953021" y1="318" y2="418" /><line stroke="rgb(21,164,164)" stroke-dasharray="3,3" stroke-opacity="0.4" stroke-width="1" x1="767.7852348993289" x2="787.9194630872483" y1="143" y2="318" /><line stroke="rgb(21,164,164)" stroke-dasharray="3,3" stroke-opacity="0.4" stroke-width="1" x1="787.9194630872483" x2="787.9194630872483" y1="318" y2="418" /><path d="M 200.0,476.5 L 201.0,477.2 L 202.0,477.9 L 203.0,478.5 L 204.0,479.1 L 205.0,479.6 L 206.0,480.0 L 207.0,480.3 L 208.0,480.4 L 209.0,480.5 L 210.0,480.4 L 211.0,480.3 L 212.0,480.0 L 213.0,479.6 L 214.0,479.1 L 215.0,478.5 L 216.0,477.9 L 217.0,477.2 L 218.0,476.5 L 219.0,475.8 L 220.0,475.1 L 221.0,474.5 L 222.0,473.9 L 223.0,473.4 L 224.0,473.0 L 225.0,472.7 L 226.0,472.6 L 227.0,472.5 L 228.0,472.6 L 229.0,472.7 L 230.0,473.0 L 230.0,476.0 L 229.0,475.7 L 228.0,475.6 L 227.0,475.5 L 226.0,475.6 L 225.0,475.7 L 224.0,476.0 L 223.0,476.4 L 222.0,476.9 L 221.0,477.5 L 220.0,478.1 L 219.0,478.8 L 218.0,479.5 L 217.0,480.2 L 216.0,480.9 L 215.0,481.5 L 214.0,482.1 L 213.0,482.6 L 212.0,483.0 L 211.0,483.3 L 210.0,483.4 L 209.0,483.5 L 208.0,483.4 L 207.0,483.3 L 206.0,483.0 L 205.0,482.6 L 204.0,482.1 L 203.0,481.5 L 202.0,480.9 L 201.0,480.2 L 200.0,479.5 Z" fill="rgb(230,90,90)" stroke="rgb(180,60,60)" stroke-width="0.5" /><text fill="black" font-size="12px" x="235" y="482">Helix</text><polygon fill="rgb(240,195,50)" points="280,475.0 302,475.0 302,472.0 310,478 302,484.0 302,481.0 280,481.0" stroke="rgb(190,150,30)" stroke-width="0.5" /><text fill="black" font-size="12px" x="315" y="482">Sheet</text><line stroke="rgb(180,180,180)" stroke-width="1.5" x1="360" x2="390" y1="478" y2="478" /><text fill="black" font-size="12px" x="395" y="482">Coil</text><line stroke="rgb(180,180,180)" stroke-dasharray="3,3" stroke-width="1.5" x1="440" x2="470" y1="478" y2="478" /><text fill="black" font-size="12px" x="475" y="482">No structure data</text><line stroke="gray" stroke-dasharray="3,3" stroke-opacity="0.4" stroke-width="1" x1="200" x2="230" y1="503" y2="503" /><text fill="black" font-size="12px" x="235" y="507">Conserved across all groups</text></svg>